<svg width="48" height="48" viewBox="0 0 48 48" fill="none" xmlns="http://www.w3.org/2000/svg">
<g filter="url(#filter0_d_6118_6473)">
<rect x="4" width="40" height="40" rx="10" fill="white"/>
<path d="M38.5417 17.63H37.3838V17.5703H24.4463V23.3203H32.5703C31.3851 26.6675 28.2003 29.0703 24.4463 29.0703C19.6831 29.0703 15.8213 25.2085 15.8213 20.4453C15.8213 15.6822 19.6831 11.8203 24.4463 11.8203C26.6449 11.8203 28.6452 12.6497 30.1683 14.0046L34.2342 9.93862C31.6669 7.54591 28.2327 6.07031 24.4463 6.07031C16.5077 6.07031 10.0713 12.5067 10.0713 20.4453C10.0713 28.3839 16.5077 34.8203 24.4463 34.8203C32.3849 34.8203 38.8213 28.3839 38.8213 20.4453C38.8213 19.4815 38.7221 18.5406 38.5417 17.63Z" fill="#FFC107"/>
<path d="M11.7284 13.7545L16.4513 17.2181C17.7292 14.0542 20.8242 11.8203 24.446 11.8203C26.6446 11.8203 28.6449 12.6497 30.1679 14.0046L34.2339 9.93862C31.6665 7.54591 28.2323 6.07031 24.446 6.07031C18.9245 6.07031 14.1362 9.18753 11.7284 13.7545Z" fill="#FF3D00"/>
<path d="M24.4468 34.8206C28.1598 34.8206 31.5336 33.3996 34.0845 31.0888L29.6354 27.324C28.1437 28.4585 26.3209 29.072 24.4468 29.0706C20.7078 29.0706 17.5331 26.6865 16.3371 23.3594L11.6494 26.9711C14.0285 31.6264 18.8599 34.8206 24.4468 34.8206Z" fill="#4CAF50"/>
<path d="M38.5407 17.63H37.3828V17.5703H24.4453V23.3203H32.5693C32.0024 24.9134 30.9812 26.3054 29.6318 27.3245L29.634 27.323L34.083 31.0878C33.7682 31.3739 38.8203 27.6328 38.8203 20.4453C38.8203 19.4815 38.7211 18.5406 38.5407 17.63Z" fill="#1976D2"/>
</g>
<defs>
<filter id="filter0_d_6118_6473" x="0" y="0" width="48" height="48" filterUnits="userSpaceOnUse" color-interpolation-filters="sRGB">
<feFlood flood-opacity="0" result="BackgroundImageFix"/>
<feColorMatrix in="SourceAlpha" type="matrix" values="0 0 0 0 0 0 0 0 0 0 0 0 0 0 0 0 0 0 127 0" result="hardAlpha"/>
<feOffset dy="4"/>
<feGaussianBlur stdDeviation="2"/>
<feComposite in2="hardAlpha" operator="out"/>
<feColorMatrix type="matrix" values="0 0 0 0 0 0 0 0 0 0 0 0 0 0 0 0 0 0 0.25 0"/>
<feBlend mode="normal" in2="BackgroundImageFix" result="effect1_dropShadow_6118_6473"/>
<feBlend mode="normal" in="SourceGraphic" in2="effect1_dropShadow_6118_6473" result="shape"/>
</filter>
</defs>
</svg>
