<svg width="48" height="48" viewBox="0 0 48 48" fill="none" xmlns="http://www.w3.org/2000/svg">
<g filter="url(#filter0_d_6118_6479)">
<path d="M34.625 0H13.375C8.19733 0 4 4.19733 4 9.375V30.625C4 35.8027 8.19733 40 13.375 40H34.625C39.8027 40 44 35.8027 44 30.625V9.375C44 4.19733 39.8027 0 34.625 0Z" fill="url(#paint0_radial_6118_6479)"/>
<path d="M34.625 0H13.375C8.19733 0 4 4.19733 4 9.375V30.625C4 35.8027 8.19733 40 13.375 40H34.625C39.8027 40 44 35.8027 44 30.625V9.375C44 4.19733 39.8027 0 34.625 0Z" fill="url(#paint1_radial_6118_6479)"/>
<path d="M24.0014 4.375C19.758 4.375 19.2253 4.39359 17.5588 4.46938C15.8953 4.54563 14.7598 4.80891 13.7664 5.19531C12.7386 5.59438 11.8669 6.12828 10.9984 6.99703C10.1292 7.86563 9.59531 8.73734 9.195 9.76469C8.8075 10.7584 8.54391 11.8944 8.46906 13.557C8.39453 15.2238 8.375 15.7566 8.375 20.0002C8.375 24.2438 8.39375 24.7747 8.46938 26.4413C8.54594 28.1047 8.80922 29.2402 9.19531 30.2336C9.59469 31.2614 10.1286 32.1331 10.9973 33.0016C11.8656 33.8708 12.7373 34.4059 13.7644 34.805C14.7586 35.1914 15.8942 35.4547 17.5573 35.5309C19.2241 35.6067 19.7563 35.6253 23.9995 35.6253C28.2434 35.6253 28.7744 35.6067 30.4409 35.5309C32.1044 35.4547 33.2411 35.1914 34.2353 34.805C35.2627 34.4059 36.1331 33.8708 37.0012 33.0016C37.8705 32.1331 38.4042 31.2614 38.8047 30.2341C39.1887 29.2402 39.4525 28.1044 39.5306 26.4416C39.6055 24.775 39.625 24.2438 39.625 20.0002C39.625 15.7566 39.6055 15.2241 39.5306 13.5573C39.4525 11.8939 39.1887 10.7586 38.8047 9.76516C38.4042 8.73734 37.8705 7.86563 37.0012 6.99703C36.1322 6.12797 35.263 5.59406 34.2344 5.19547C33.2383 4.80891 32.1022 4.54547 30.4387 4.46938C28.772 4.39359 28.2414 4.375 23.9966 4.375H24.0014ZM22.5997 7.19078C23.0158 7.19016 23.48 7.19078 24.0014 7.19078C28.1734 7.19078 28.6678 7.20578 30.3153 7.28063C31.8387 7.35031 32.6656 7.60484 33.2164 7.81875C33.9456 8.10188 34.4655 8.44047 35.012 8.9875C35.5589 9.53438 35.8973 10.0552 36.1813 10.7844C36.3952 11.3344 36.65 12.1613 36.7194 13.6847C36.7942 15.3319 36.8105 15.8266 36.8105 19.9966C36.8105 24.1666 36.7942 24.6614 36.7194 26.3084C36.6497 27.8319 36.3952 28.6588 36.1813 29.2089C35.8981 29.9381 35.5589 30.4573 35.012 31.0039C34.4652 31.5508 33.9459 31.8892 33.2164 32.1725C32.6663 32.3873 31.8387 32.6413 30.3153 32.7109C28.6681 32.7858 28.1734 32.802 24.0014 32.802C19.8292 32.802 19.3347 32.7858 17.6877 32.7109C16.1642 32.6406 15.3373 32.3861 14.7861 32.1722C14.057 31.8889 13.5361 31.5505 12.9892 31.0036C12.4423 30.4567 12.1039 29.9372 11.82 29.2077C11.6061 28.6575 11.3512 27.8306 11.2819 26.3072C11.207 24.66 11.192 24.1653 11.192 19.9927C11.192 15.8202 11.207 15.328 11.2819 13.6808C11.3516 12.1573 11.6061 11.3305 11.82 10.7797C12.1033 10.0505 12.4423 9.52969 12.9894 8.98281C13.5363 8.43594 14.057 8.09734 14.7862 7.81359C15.337 7.59875 16.1642 7.34484 17.6877 7.27484C19.1291 7.20969 19.6877 7.19016 22.5997 7.18688V7.19078ZM32.342 9.78516C31.3069 9.78516 30.467 10.6242 30.467 11.6595C30.467 12.6947 31.3069 13.5345 32.342 13.5345C33.3772 13.5345 34.217 12.6947 34.217 11.6595C34.217 10.6244 33.3772 9.78453 32.342 9.78453V9.78516ZM24.0014 11.9759C19.5702 11.9759 15.9773 15.5688 15.9773 20.0002C15.9773 24.4316 19.5702 28.0227 24.0014 28.0227C28.4328 28.0227 32.0244 24.4316 32.0244 20.0002C32.0244 15.5689 28.4325 11.9759 24.0011 11.9759H24.0014ZM24.0014 14.7917C26.8778 14.7917 29.2098 17.1234 29.2098 20.0002C29.2098 22.8766 26.8778 25.2086 24.0014 25.2086C21.1248 25.2086 18.7931 22.8766 18.7931 20.0002C18.7931 17.1234 21.1248 14.7917 24.0014 14.7917Z" fill="white"/>
</g>
<defs>
<filter id="filter0_d_6118_6479" x="0" y="0" width="48" height="48" filterUnits="userSpaceOnUse" color-interpolation-filters="sRGB">
<feFlood flood-opacity="0" result="BackgroundImageFix"/>
<feColorMatrix in="SourceAlpha" type="matrix" values="0 0 0 0 0 0 0 0 0 0 0 0 0 0 0 0 0 0 127 0" result="hardAlpha"/>
<feOffset dy="4"/>
<feGaussianBlur stdDeviation="2"/>
<feComposite in2="hardAlpha" operator="out"/>
<feColorMatrix type="matrix" values="0 0 0 0 0 0 0 0 0 0 0 0 0 0 0 0 0 0 0.25 0"/>
<feBlend mode="normal" in2="BackgroundImageFix" result="effect1_dropShadow_6118_6479"/>
<feBlend mode="normal" in="SourceGraphic" in2="effect1_dropShadow_6118_6479" result="shape"/>
</filter>
<radialGradient id="paint0_radial_6118_6479" cx="0" cy="0" r="1" gradientUnits="userSpaceOnUse" gradientTransform="translate(14.625 43.0808) rotate(-90) scale(39.643 36.8711)">
<stop stop-color="#FFDD55"/>
<stop offset="0.1" stop-color="#FFDD55"/>
<stop offset="0.5" stop-color="#FF543E"/>
<stop offset="1" stop-color="#C837AB"/>
</radialGradient>
<radialGradient id="paint1_radial_6118_6479" cx="0" cy="0" r="1" gradientUnits="userSpaceOnUse" gradientTransform="translate(-2.70016 2.88141) rotate(78.681) scale(17.7206 73.045)">
<stop stop-color="#3771C8"/>
<stop offset="0.128" stop-color="#3771C8"/>
<stop offset="1" stop-color="#6600FF" stop-opacity="0"/>
</radialGradient>
</defs>
</svg>
