<svg width="402" height="648" viewBox="0 0 402 648" fill="none" xmlns="http://www.w3.org/2000/svg">
<path d="M1.71802 260.943C1.78796 257.767 2.82062 254.685 4.68066 252.102L5.6217 250.577C11.0134 242.15 17.4026 234.398 24.652 227.486C36.1659 216.772 48.6504 207.139 61.9461 198.71C71.1128 192.539 78.1184 184.6 79.5475 173.436C80.6469 164.563 85.2179 156.478 92.2693 150.935C132.869 116.41 177.306 86.6192 224.715 62.1447C225.769 61.7924 226.705 61.1606 227.424 60.3174C228.143 59.4741 228.616 58.4516 228.793 57.3602C225.361 56.507 221.864 55.9387 218.337 55.6614C217.047 55.6614 215.758 55.6614 214.433 55.6614C202.39 63.0668 190.851 71.2552 179.893 80.1732C183.083 70.6296 189.082 62.2592 197.111 56.1468C190.14 56.8402 182.821 57.9843 175.675 59.0244H175.222C171.179 61.7634 167.066 64.3983 163.128 67.1719C147.961 77.7225 133.393 89.1001 119.49 101.253C124.23 86.0053 133.02 72.314 144.934 61.6247C142.111 63.5662 139.183 65.3344 136.43 67.4839C125.54 75.7653 115.893 85.5482 107.779 96.5375C114.75 68.8014 136.883 45.0524 162.884 32.5018C174.854 26.2721 187.525 21.4773 200.631 18.2177C179.222 20.6457 158.067 24.9263 137.406 31.011C179.395 7.3815 227.558 -3.14007 275.637 0.813328C323.801 4.75933 369.487 23.7091 406.201 54.968C475.329 101.984 523.584 173.691 540.935 255.183C558.286 336.675 543.398 421.684 499.367 492.539C498.356 494.342 497.275 496.006 496.16 497.809C461.99 550.726 413.211 592.724 355.663 618.773L354.547 619.57L354.931 619.12C312.826 638.134 267.122 647.981 220.881 648C209.228 647.894 197.591 647.118 186.027 645.677L186.306 645.885C186.306 645.885 157.97 643.389 145.073 637.599C145.073 637.599 140.264 551.652 163.895 519.305V519.894C173.553 500.398 186.311 482.579 201.677 467.126C201.851 466.953 202.234 467.126 202.688 466.883C184.633 515.734 178.046 565.069 193.033 615.722C192.822 592.136 197.324 568.743 206.277 546.902C214.926 526.098 225.534 506.154 237.96 487.339C254.725 461.128 272.047 435.334 287.314 408.152C307.634 371.957 324.364 334.374 333.461 293.741C334.992 288.539 334.808 282.987 332.938 277.897C320.843 302.166 310.422 326.712 291.67 346.301C272.919 365.889 250.368 379.549 225.97 390.887C253.853 352.299 279.855 312.914 295.504 267.669C287.64 274.082 280.405 281.221 273.895 288.991C252.111 314.231 224.506 331.289 194.741 345.434L194.183 344.671C196.483 342.175 198.784 339.644 201.154 337.217C224.372 313.84 244.483 287.601 260.999 259.14C261.591 258.1 262.672 257.164 262.358 255.673C261.347 256.124 260.58 256.436 259.814 256.817C249.386 262.928 239.682 270.185 230.885 278.451C224.838 283.936 218.087 288.6 210.809 292.319C209.554 292.944 208.334 293.88 207.009 292.077C205.685 290.274 206.138 289.373 207.184 287.951C211.436 282.022 215.514 275.955 219.871 270.096C221.544 267.773 220.463 267.218 218.372 267.01C217.095 266.965 215.822 267.172 214.625 267.618C213.429 268.064 212.333 268.741 211.401 269.611C203.336 275.908 194.463 281.108 185.016 285.073C169.982 291.613 154.626 297.399 139.009 302.408C132.317 304.766 131.829 307.332 136.325 312.81C141.986 319.52 146.41 327.173 149.395 335.414C153.961 348.034 152.567 359.683 143.087 370.085C137.873 375.401 131.638 379.622 124.753 382.496C121.268 384.091 117.783 385.513 113.739 387.177L119.142 390.401C129.907 396.193 139.654 403.687 148.001 412.59C151.314 416.004 153.941 420.017 155.739 424.413C156.792 426.761 156.992 429.4 156.306 431.879C155.619 434.358 154.088 436.523 151.975 438.003C149.538 439.839 146.865 441.343 144.028 442.476C123.9 450.435 102.24 453.823 80.6279 452.391C77.0853 452.25 73.6162 451.343 70.4621 449.732C67.3079 448.121 64.5445 445.846 62.3643 443.065C52.1904 431.079 44.4493 417.245 39.5697 402.328C37.827 397.162 36.2934 391.927 34.9341 386.691C33.1566 380.174 34.9341 377.504 41.6958 376.88C47.3136 376.834 52.9064 377.628 58.2865 379.237C63.8234 380.863 69.7469 380.607 75.121 378.509C66.4589 371.141 55.7997 366.485 44.4841 365.127C32.7731 363.844 23.9899 359.198 18.4132 348.52C12.6834 338.117 8.09119 327.133 4.71545 315.756C2.10974 306.826 0.84137 297.562 0.951233 288.263C0.409241 284.646 0.0949707 280.998 0.0101929 277.342C-0.0787354 272.413 0.412476 267.491 1.474 262.677L1.71802 260.943ZM465.941 207.066C464.687 204.292 463.362 201.519 462.038 198.745C462.038 203.703 461.724 208.661 461.201 213.549C460.922 216.288 460.469 218.958 460.086 221.662C460.775 221.832 461.395 222.207 461.864 222.737C468.621 228.814 474.912 235.385 480.685 242.395C475.945 230.514 471.03 218.738 465.941 207.066ZM294.912 624.667C313.803 609.204 331.857 592.771 350.679 577.1C353.014 575.158 355.314 573.147 357.649 571.206C373.209 553.729 387.336 535.04 399.893 515.318C393.759 531.59 385.56 547.016 375.495 561.221C376.296 561.463 356.708 586.981 357.51 587.57C357.51 587.57 380.897 567.08 380.305 569.958C405.783 536.605 426.661 499.855 451.407 463.902C444.099 488.895 434.169 513.054 421.781 535.981C428.752 526.736 435.363 517.155 441.613 507.239C461.271 474.58 476.467 439.078 490.409 402.293C485.286 445.492 472.982 489.246 448.375 527.105C441.247 538.065 433.326 548.494 424.674 558.308C446.655 539.523 465.925 517.812 481.94 493.787C485.739 486.091 489.363 478.325 492.709 470.454C503.05 446.448 511.215 421.572 517.107 396.122C518.307 402.995 518.971 409.949 519.094 416.924C532.879 374.669 537.139 329.913 531.572 285.836C532.323 313.119 528.349 340.328 519.826 366.271C517.805 357.222 515.574 348.381 513.239 339.714C519.617 289.407 510.45 236.709 485.355 193.128C499.58 255.015 503.349 318.824 496.509 381.942C489.919 407.049 479.088 430.859 464.478 452.357C472.673 424.96 479.237 397.106 484.135 368.94C483.331 369.896 482.574 370.891 481.87 371.922C483.353 363.269 482.864 354.395 480.441 345.954C480.023 348 479.744 349.421 479.43 350.773C477.687 358.331 477.339 366.167 474.585 373.447C460.644 410.579 439.243 443.446 413.939 473.748C411.185 477.215 408.153 480.127 405.365 483.386L402.298 486.853C356.604 539.309 305.124 585.975 252.843 631.774C252.843 631.774 252.599 632.121 252.459 632.225C266.768 630.677 280.952 628.152 294.912 624.667ZM300.698 526.169C310.91 514.312 320.53 502.108 330.184 489.939C323.775 502.049 316.421 513.641 308.191 524.609C301.813 530.399 295.26 535.981 288.394 541.181C282.783 547.769 277.241 554.391 271.176 560.666C269.844 561.637 268.826 562.975 268.248 564.514C270.026 564.098 271.734 563.509 273.302 562.989C256.618 578.4 237.847 591.412 217.535 601.646C238.296 597.841 258.091 589.972 275.771 578.498C293.451 567.023 308.665 552.171 320.53 534.802C325.374 531.578 330.324 528.562 335.099 525.233C348.999 508.876 361.95 491.744 373.891 473.921C398.526 437.324 418.643 397.909 433.806 356.529C428.643 401.056 413.026 443.751 388.217 481.168C402.016 467.442 413.945 451.974 423.698 435.16C423.977 434.675 424.186 434.155 424.465 433.669C432.7 413.374 439.468 392.518 444.715 371.263C454.553 330.867 458.635 289.295 456.845 247.768C456.953 248.076 457.046 248.388 457.123 248.704C457.542 245.931 457.542 243.088 457.82 240.28C463.235 259.128 466.463 278.531 467.44 298.109C469.346 283.271 470.67 268.247 471.414 253.038C468.172 245.272 464.896 237.541 461.933 229.671C461.068 227.587 460.358 225.443 459.807 223.257C454.183 255.967 441.715 287.138 423.21 314.751C432.969 280.081 441.753 246.208 445.238 212.024C446.935 195.492 447.168 178.844 445.935 162.272C435.713 136.524 419.106 113.767 397.662 96.1214C411.544 121.426 423.655 147.653 433.91 174.615C416.817 145.66 397.814 117.863 377.028 91.4063L370.894 85.5817C370.546 85.4914 370.179 85.4986 369.835 85.6026C369.49 85.7066 369.181 85.9034 368.942 86.1711C372.776 88.2166 373.682 92.065 375.46 95.22C381.657 105.107 386.664 115.685 390.377 126.735C395.447 146.388 394.229 167.124 386.892 186.056C379.825 204.418 370.581 221.876 359.357 238.061C358.625 239.205 357.928 240.384 356.952 242.013C367.677 239.659 377.513 234.334 385.324 226.654C394.259 209.898 400.648 191.917 404.284 173.297C405.132 194.479 400.193 215.494 389.994 234.108C388.653 241.431 386.873 248.667 384.661 255.777C378.422 275.955 369.5 295.058 362.041 314.716C360.957 316.662 360.359 318.838 360.298 321.061C371.318 311.923 380.874 301.167 388.635 289.164C395.859 277.819 402.242 265.965 407.735 253.697C414.479 230.924 419.844 207.769 423.803 184.357C431.506 250.75 409.861 320.957 367.13 372.997C367.252 377.984 367.078 382.973 366.607 387.94C366.328 390.783 365.84 393.556 365.422 396.364C381.635 374.67 396.465 351.986 409.826 328.446C402.452 368.664 383.152 405.768 354.408 434.987C353.746 436.616 353.153 438.454 352.386 439.91C351.027 442.926 349.493 445.839 348.064 448.82C348.064 447.85 348.064 446.844 348.064 445.873C347.054 449.34 345.694 452.495 344.579 455.858C332.251 480.64 317.557 504.186 300.698 526.169ZM325.096 108.568C333.983 118.38 336.005 130.445 336.876 142.891C337.15 151.004 336.706 159.125 335.552 167.16C341.83 161.416 346.859 154.453 350.33 146.702C353.801 138.95 355.639 130.574 355.732 122.089C356.151 105.378 344.649 99.1724 332.554 98.7563C330.602 98.7366 328.679 99.2267 326.978 100.178C322.656 102.362 321.854 105.136 325.096 108.568ZM164.766 187.096C171.284 189.419 172.748 191.95 171.737 198.71C171.04 202.559 169.855 206.338 168.705 210.983C195.105 198.811 222.871 189.814 251.414 184.183C224.681 168.755 177.279 166.848 152.009 183.143C156.297 184.495 160.653 185.605 164.766 187.096ZM5.23834 284.727C9.11542 287.845 12.4583 291.569 15.1369 295.752C17.7349 299.721 20.762 303.394 24.1642 306.708C25.872 308.268 26.8131 308.268 27.6496 305.875C29.0438 301.923 30.6122 297.971 32.2504 294.018C32.8259 292.214 33.9493 290.632 35.4661 289.49C36.9829 288.348 38.8184 287.701 40.7199 287.639C44.4904 287.439 48.248 287.045 51.9779 286.46C58.9487 285.316 65.327 274.256 64.1071 265.658L60.2034 266.525C44.5428 270.517 28.21 271.167 12.2789 268.432C9.65637 268.102 7.1297 267.24 4.85486 265.901C5.13373 269.368 5.20343 273.355 5.4126 277.203C5.44745 279.526 5.37775 282.126 5.23834 284.727Z" fill="#EDF2FA" fill-opacity="0.5"/>
</svg>
