<svg width="288" height="69" viewBox="0 0 288 69" fill="none" xmlns="http://www.w3.org/2000/svg">
<path d="M89.0674 43.5022C85.5805 43.2269 82.9212 40.0925 79.0554 32.7189C81.7809 31.8234 83.7855 29.724 83.7855 27.1732C83.7855 24.6223 81.6081 21.4219 75.9473 21.4219C75.5317 21.4219 74.3584 21.5246 73.1519 21.6274C71.9455 21.7302 70.7685 21.7999 70.3197 21.7999C69.871 21.7999 67.8701 21.7669 67.3772 21.7669L67.2411 22.6624C67.9767 22.6955 69.345 22.7285 69.5547 24.281C69.6576 25.0738 69.6908 25.7968 69.6908 30.2746C69.6908 32.0326 69.6209 39.92 69.3818 40.8522C69.139 41.9533 68.5873 42.1956 67.1013 42.6433V43.4691C68.5094 43.2965 69.9273 43.2156 71.3459 43.2269C72.3133 43.2269 72.8172 43.2269 73.4204 43.2636C74.0237 43.3003 74.5938 43.3297 75.6972 43.4691L75.837 42.6433C75.3515 42.5736 73.9722 42.2763 73.5234 41.6083C73.0747 40.8743 73.0747 37.4389 73.0747 36.3011C73.0747 34.3742 73.1078 33.754 73.1446 32.9979C73.832 33.0796 74.5232 33.1261 75.2154 33.1374C80.9019 44.4528 85.7166 44.4528 89.0674 44.3977V43.5022ZM74.8439 31.9298C74.3103 31.9552 73.7758 31.9083 73.2549 31.7904C73.2218 28.7918 73.2218 28.3807 73.3579 25.1068C73.4609 22.9047 73.4609 22.4532 75.2558 22.4532C79.4343 22.4532 80.0559 26.2776 80.0559 27.5182C80.0559 31.9298 76.488 31.9298 74.8439 31.9298Z" fill="white"/>
<path d="M100.739 21.3867C94.733 21.3867 88.9325 25.6589 88.9325 32.3792C88.9325 38.4057 93.2507 43.779 100.533 43.779C107.577 43.779 112.134 38.336 112.134 32.548C112.134 26.2792 107.059 21.3867 100.739 21.3867ZM101.295 42.5421C95.7004 42.5421 92.9748 36.2036 92.9748 30.5183C92.9748 23.4898 98.1243 22.7337 99.7758 22.7337C105.955 22.7337 108.129 30.3458 108.129 34.8236C108.122 41.1951 103.502 42.5421 101.295 42.5421Z" fill="white"/>
<path d="M126.948 41.3683C126.812 40.6782 126.812 34.3948 126.812 33.1028L128.228 30.7575C132.37 23.784 133.609 22.9032 135.993 22.8701L136.03 21.7691C135.511 21.7691 133.128 21.8351 132.576 21.8351C132.024 21.8351 131.197 21.8021 130.505 21.7691C129.814 21.736 129.159 21.6993 128.846 21.6993L128.743 22.6976C129.711 22.7307 130.884 22.7307 130.884 23.7657C130.884 24.5218 130.678 24.8668 126.327 31.6567C124.256 29.1389 120.442 23.9015 120.442 23.2849C120.442 22.6683 121.964 22.6646 122.281 22.6646L122.42 21.7324L117.683 21.8021C117.337 21.8021 116.333 21.7691 115.333 21.7324C114.332 21.6956 113.368 21.6993 113.023 21.6993L113.159 22.5251C115.333 22.5251 116.37 23.7987 117.683 25.421C121.273 30.1923 122.17 31.6604 123.241 33.3781C123.274 33.9984 123.274 34.1709 123.274 34.5819C123.274 35.7895 123.274 40.5424 123.068 41.2655C122.862 41.9885 122.516 42.4363 120.375 42.6088L120.339 43.4016C120.684 43.4016 121.755 43.3318 122.792 43.2658C123.829 43.1997 124.966 43.1263 125.345 43.1263C126.08 43.1263 126.9 43.163 127.658 43.2291C128.416 43.2951 129.177 43.3319 129.733 43.4016L129.821 42.6198C129.056 42.506 127.121 42.095 126.948 41.3683Z" fill="white"/>
<path d="M138.479 40.9561C138.479 40.4386 139.064 39.0586 139.307 38.4383L140.34 35.9609C141.864 35.769 143.399 35.688 144.934 35.7186C145.763 35.6985 146.593 35.7328 147.417 35.8214C147.59 36.3059 149.282 40.8166 149.282 41.3011C149.282 42.0939 148.454 42.4352 147.557 42.5747V43.3528C148.627 43.2867 150.249 43.1142 152.39 43.1142C153.126 43.1142 153.666 43.1142 154.152 43.1509C154.637 43.1876 155.046 43.217 155.428 43.2537V42.5637C154.049 42.3581 153.46 42.2517 151.46 36.6912C150.768 34.8561 147.318 25.9777 146.59 23.9481C146.178 22.8103 145.968 22.0506 145.762 21.3789H144.865C144.659 21.9955 144.449 22.6158 144.107 23.4783C143.654 24.6491 137.685 39.2898 136.475 41.2204C136.258 41.5892 135.957 41.9027 135.598 42.1358C135.239 42.369 134.83 42.5155 134.404 42.5637V43.2537C134.956 43.217 136.405 43.217 136.82 43.217L138.825 43.2867C139.822 43.3234 140.859 43.3528 141.102 43.3528V42.5637C140.134 42.4352 138.479 42.2297 138.479 40.9561ZM143.897 27.0091C145.042 29.4447 146.056 31.939 146.935 34.4817C146.192 34.5832 145.442 34.6298 144.692 34.6212C143.442 34.6108 142.196 34.5065 140.962 34.3092L143.897 27.0091Z" fill="white"/>
<path d="M175.121 43.5388C176.298 40.0594 176.331 39.8172 176.471 38.7161L175.64 38.6133C175.088 40.2283 174.26 41.7477 167.548 41.7477C165.959 41.7477 165.131 41.7477 164.855 41.2302C164.579 40.7127 164.51 39.6447 164.51 37.5086L164.546 32.2051C164.546 30.6525 164.613 24.3837 165.098 23.4882C165.444 22.8679 166.408 22.6954 167.515 22.5596V21.6641C166.202 21.7301 165.547 21.7668 162.921 21.7668C160.438 21.7668 160.019 21.7301 158.709 21.6971V22.5229C159.71 22.5926 160.714 22.6954 160.887 24.1415C160.986 25.004 160.986 25.6096 160.986 31.9628C160.953 40.3677 160.953 40.7127 160.368 41.4358C159.919 41.9863 159.022 42.1955 158.433 42.2616L158.503 43.1241H168.114C170.461 43.1241 171.844 43.1608 172.811 43.2269C173.587 43.2824 174.358 43.3866 175.121 43.5388Z" fill="white"/>
<path d="M203.403 42.6205C202.642 42.5178 200.707 42.1067 200.534 41.38C200.361 40.6533 200.398 34.4065 200.398 33.1145L201.81 30.7692C205.956 23.7957 207.199 22.9149 209.579 22.8819L209.616 21.7808C209.097 21.7808 206.717 21.8468 206.162 21.8468C205.606 21.8468 204.782 21.8138 204.091 21.7808C203.399 21.7477 202.745 21.711 202.436 21.711L202.333 22.7094C203.296 22.7424 204.473 22.7424 204.473 23.7774C204.473 24.5335 204.264 24.8785 199.913 31.6685C197.842 29.1507 194.046 23.9132 194.046 23.2966C194.046 22.68 195.565 22.6763 195.885 22.6763L196.025 21.7441L191.295 21.8138C190.949 21.8138 189.948 21.7808 188.948 21.7441C187.947 21.7074 186.98 21.711 186.634 21.711L186.77 22.5368C188.948 22.5368 189.981 23.8104 191.295 25.4327C194.884 30.204 195.782 31.6721 196.852 33.3898C196.885 34.0101 196.885 34.1826 196.885 34.5937C196.885 35.8012 196.885 40.5542 196.679 41.2772C196.473 42.0003 196.128 42.448 193.987 42.6205L193.954 43.4133C194.296 43.4133 195.37 43.3436 196.404 43.2775C197.437 43.2114 198.581 43.138 198.956 43.138C199.692 43.138 200.512 43.1747 201.273 43.2408C202.035 43.3069 202.789 43.3436 203.344 43.4133L203.403 42.6205Z" fill="white"/>
<path d="M223.356 21.3867C217.349 21.3867 211.549 25.6589 211.549 32.3792C211.549 38.4057 215.863 43.779 223.15 43.779C230.193 43.779 234.751 38.336 234.751 32.548C234.751 26.2792 229.675 21.3867 223.356 21.3867ZM223.907 42.5421C218.316 42.5421 215.591 36.2036 215.591 30.5183C215.591 23.4898 220.74 22.7337 222.392 22.7337C228.571 22.7337 230.745 30.3458 230.745 34.8236C230.745 41.1951 226.118 42.5421 223.907 42.5421Z" fill="white"/>
<path d="M244.54 36.3011C244.54 34.3742 244.573 33.754 244.606 32.9979C245.295 33.0796 245.988 33.1261 246.681 33.1374C252.342 44.4528 257.175 44.4528 260.522 44.3977V43.5022C257.039 43.2269 254.376 40.0925 250.51 32.7189C253.239 31.8234 255.24 29.724 255.24 27.1732C255.24 24.6223 253.066 21.4219 247.406 21.4219C246.99 21.4219 245.817 21.5246 244.606 21.6274C243.396 21.7302 242.227 21.7999 241.778 21.7999C241.329 21.7999 239.325 21.7669 238.835 21.7669L238.703 22.6624C239.439 22.6955 240.811 22.7285 241.017 24.281C241.12 25.0738 241.156 25.7968 241.156 30.2746C241.156 32.0326 241.086 39.92 240.844 40.8522C240.601 41.9533 240.049 42.1956 238.567 42.6433V43.4691C239.975 43.2963 241.393 43.2154 242.812 43.2269C243.779 43.2269 244.283 43.2269 244.886 43.2636C245.489 43.3003 246.059 43.3297 247.163 43.4691L247.303 42.6433C246.817 42.5736 245.438 42.2763 244.989 41.6083C244.54 40.8853 244.54 37.4389 244.54 36.3011ZM244.816 25.1068C244.915 22.9047 244.915 22.4532 246.714 22.4532C250.889 22.4532 251.496 26.2776 251.496 27.5182C251.496 31.9225 247.939 31.9225 246.284 31.9225C245.75 31.9477 245.216 31.9008 244.695 31.783C244.676 28.7918 244.676 28.3807 244.816 25.1068Z" fill="white"/>
<path d="M271.529 30.7948C272.772 29.3267 274.082 27.5576 275.259 26.3501C275.498 26.1445 276.638 25.0068 276.848 24.7645C277.215 24.3975 278.779 22.8376 281.817 22.4926L281.784 21.6301C280.504 21.6998 279.467 21.7696 278.676 21.7696L274.262 21.7329V22.5954C275.156 22.5954 275.777 22.7679 275.777 23.4542C275.777 23.7992 274.847 25.0068 274.604 25.3151L268.943 32.5161L268.873 32.4464C268.906 31.8628 268.943 24.247 269.326 23.2707C269.565 22.6835 270.705 22.511 271.739 22.3385V21.5273C270.462 21.6301 269.046 21.7329 267.494 21.7329C266.872 21.7329 263.816 21.6301 263.11 21.6301L263.143 22.4229C264.592 22.6615 264.941 22.8707 265.214 23.6965C265.423 24.3167 265.493 31.4481 265.493 32.4831C265.493 33.1364 265.423 40.4732 264.868 41.4385C264.456 42.2643 263.525 42.3341 262.937 42.4038V43.2296C264.456 43.1966 266.008 43.1635 267.391 43.1635C268.528 43.1635 269.289 43.1635 269.911 43.2296C270.527 43.2682 271.141 43.3381 271.75 43.4388V42.6203C269.885 42.2533 269.37 41.7945 269.23 41.5193C268.884 40.866 268.884 34.421 268.884 33.4227C271.577 35.9038 277.171 41.7248 277.171 42.1726C277.171 42.5396 276.69 42.6203 276.031 42.6901L276.101 43.3764C277.55 43.2406 279.312 43.2406 280.798 43.2406C281.832 43.2406 282.453 43.2406 282.935 43.2773C283.417 43.314 283.696 43.3434 284.005 43.3764V42.6203C282.453 42.1065 280.243 40.0732 280.107 39.9704C278.433 38.4069 272.184 31.5178 271.529 30.7948Z" fill="white"/>
<path d="M82.9845 48.7612C82.782 48.5746 82.5427 48.4321 82.282 48.3428C81.9876 48.247 81.6795 48.1999 81.3698 48.2033H78.0594V55.6613H78.773V52.4645H81.3772C81.6871 52.4685 81.9956 52.4201 82.2894 52.3213C82.5514 52.2349 82.7913 52.0921 82.9919 51.9029C83.1896 51.715 83.3429 51.4856 83.4406 51.2313C83.6514 50.6515 83.6514 50.0163 83.4406 49.4365C83.3404 49.1806 83.1847 48.9499 82.9845 48.7612ZM82.4181 51.4808C82.0729 51.7404 81.647 51.8704 81.2153 51.8479H78.7657V48.7979H81.2153C81.647 48.7754 82.0729 48.9053 82.4181 49.1649C82.7136 49.4747 82.8784 49.886 82.8784 50.3137C82.8784 50.7414 82.7136 51.1527 82.4181 51.4625V51.4808Z" fill="white"/>
<path d="M94.1622 54.7541C94.1402 54.5706 94.1254 54.3871 94.1218 54.2072C94.1181 54.0274 94.1218 53.8732 94.0997 53.7484C94.0871 53.5396 94.0575 53.3322 94.0114 53.1282C93.9689 52.9463 93.8942 52.7736 93.7907 52.618C93.6871 52.4692 93.553 52.3441 93.3972 52.251C93.2093 52.1483 93.0031 52.0835 92.7903 52.0601V52.0381C93.0096 52.0062 93.2204 51.9306 93.4099 51.8158C93.5995 51.7011 93.764 51.5495 93.8937 51.3701C94.142 51.0072 94.2706 50.5761 94.2615 50.1369C94.2678 49.8355 94.2049 49.5367 94.0776 49.2634C93.9614 49.0269 93.7929 48.8198 93.5847 48.6578C93.364 48.496 93.1143 48.3776 92.8491 48.3091C92.5636 48.2331 92.2692 48.1949 91.9737 48.1953H88.5493V55.6533H89.2629V52.3501H91.9627C92.2371 52.3218 92.5135 52.3795 92.7535 52.5152C92.9427 52.6377 93.0952 52.8089 93.1949 53.0107C93.2985 53.2321 93.3656 53.4689 93.3935 53.7117C93.4229 53.9723 93.445 54.2366 93.4597 54.4972C93.4597 54.5779 93.467 54.6697 93.4818 54.7724C93.4818 54.8752 93.4818 54.9816 93.5075 55.0917C93.519 55.1966 93.5362 55.3007 93.559 55.4037C93.5794 55.4943 93.6142 55.581 93.662 55.6606H94.4454C94.3594 55.5523 94.2968 55.4273 94.2615 55.2936C94.2154 55.1164 94.1823 54.9361 94.1622 54.7541ZM92.5401 51.6454C92.3409 51.7115 92.1322 51.745 91.9222 51.7445H89.2629V48.8083H91.9332C92.1518 48.7906 92.3717 48.8166 92.5801 48.8846C92.7885 48.9527 92.9812 49.0615 93.147 49.2046C93.2854 49.3512 93.392 49.5246 93.4604 49.714C93.5287 49.9034 93.5573 50.1048 93.5443 50.3057C93.5497 50.5079 93.5092 50.7087 93.4257 50.8931C93.3423 51.0774 93.2181 51.2405 93.0625 51.3701C92.9072 51.4938 92.73 51.5871 92.5401 51.6454Z" fill="white"/>
<path d="M105.206 49.2261C104.906 48.864 104.529 48.5721 104.103 48.371C103.622 48.149 103.096 48.0398 102.565 48.0517C102.033 48.0402 101.505 48.1494 101.021 48.371C100.594 48.5714 100.217 48.8635 99.9172 49.2261C99.6185 49.5932 99.3937 50.0145 99.2551 50.4667C98.9672 51.4243 98.9672 52.4452 99.2551 53.4029C99.3936 53.8529 99.6185 54.2718 99.9172 54.6361C100.218 54.9977 100.594 55.2885 101.021 55.4876C101.505 55.7092 102.033 55.8184 102.565 55.8069C103.096 55.8188 103.622 55.7096 104.103 55.4876C104.529 55.2879 104.906 54.9972 105.206 54.6361C105.503 54.2709 105.727 53.8522 105.865 53.4029C106.158 52.446 106.158 51.4236 105.865 50.4667C105.726 50.0152 105.503 49.5942 105.206 49.2261ZM105.206 53.135C105.104 53.5131 104.935 53.8698 104.706 54.1883C104.475 54.4946 104.179 54.7454 103.838 54.9224C103.444 55.1211 103.007 55.2182 102.565 55.205C102.122 55.2182 101.682 55.1211 101.285 54.9224C100.943 54.7472 100.644 54.4961 100.414 54.1883C100.186 53.8692 100.015 53.5127 99.9098 53.135C99.694 52.3506 99.694 51.5227 99.9098 50.7383C100.014 50.3611 100.184 50.0056 100.414 49.6886C100.644 49.3802 100.942 49.129 101.285 48.9545C101.683 48.7575 102.122 48.6605 102.565 48.6719C103.007 48.6604 103.444 48.7574 103.838 48.9545C104.179 49.1316 104.475 49.3824 104.706 49.6886C104.936 50.005 105.106 50.3608 105.206 50.7383C105.422 51.5227 105.422 52.3506 105.206 53.135Z" fill="white"/>
<path d="M116.035 48.7612C115.833 48.5746 115.594 48.4321 115.333 48.3428C115.038 48.247 114.73 48.1999 114.421 48.2033H111.11V55.6613H111.802V52.4645H114.406C114.716 52.4685 115.024 52.4201 115.318 52.3213C115.58 52.2349 115.82 52.0921 116.021 51.9029C116.218 51.715 116.372 51.4856 116.469 51.2313C116.675 50.6506 116.675 50.0171 116.469 49.4365C116.376 49.1826 116.227 48.9521 116.035 48.7612ZM115.48 51.4808C115.134 51.7413 114.706 51.8713 114.273 51.8479H111.802V48.7979H114.248C114.681 48.7745 115.108 48.9045 115.454 49.1649C115.75 49.4747 115.914 49.886 115.914 50.3137C115.914 50.7414 115.75 51.1527 115.454 51.4625L115.48 51.4808Z" fill="white"/>
<path d="M122.31 52.1083H126.477V51.5027H122.31V48.8087H126.761V48.2031H121.6V55.6611H126.812V55.0555H122.31V52.1083Z" fill="white"/>
<path d="M137.315 54.7541C137.315 54.5706 137.282 54.387 137.275 54.2072C137.268 54.0274 137.275 53.8732 137.253 53.7484C137.244 53.5393 137.214 53.3315 137.165 53.1281C137.125 52.946 137.051 52.773 136.948 52.618C136.843 52.47 136.709 52.3451 136.554 52.251C136.366 52.1494 136.16 52.0847 135.947 52.0601V52.0381C136.166 52.0056 136.377 51.9297 136.566 51.815C136.756 51.7003 136.92 51.5491 137.051 51.3701C137.299 51.0074 137.428 50.5762 137.418 50.1369C137.426 49.8358 137.364 49.537 137.238 49.2634C137.122 49.0269 136.953 48.8198 136.745 48.6578C136.524 48.497 136.274 48.3788 136.01 48.3091C135.724 48.2336 135.43 48.1953 135.134 48.1953H131.71V55.6533H132.423V52.35H135.123C135.398 52.3218 135.674 52.3795 135.914 52.5152C136.103 52.6367 136.255 52.8083 136.352 53.0107C136.458 53.2313 136.527 53.4683 136.554 53.7117C136.583 53.9723 136.605 54.2366 136.62 54.4972C136.62 54.5779 136.62 54.6697 136.642 54.7724C136.664 54.8752 136.642 54.9816 136.668 55.0917C136.678 55.1968 136.695 55.3011 136.72 55.4037C136.739 55.494 136.772 55.5808 136.819 55.6606H137.602C137.519 55.5511 137.458 55.4265 137.422 55.2936C137.372 55.117 137.336 54.9365 137.315 54.7541ZM135.704 51.6454C135.506 51.7118 135.299 51.7453 135.09 51.7445H132.431V48.8082H135.09C135.309 48.791 135.528 48.8172 135.737 48.8852C135.945 48.9532 136.138 49.0618 136.304 49.2046C136.442 49.3512 136.549 49.5246 136.617 49.714C136.686 49.9034 136.714 50.1048 136.701 50.3057C136.705 50.5163 136.66 50.725 136.569 50.915C136.481 51.0919 136.356 51.2473 136.201 51.3701C136.053 51.49 135.885 51.5831 135.704 51.6454Z" fill="white"/>
<path d="M141.853 48.8087H144.45V55.6611H145.16V48.8087H147.768V48.2031H141.853V48.8087Z" fill="white"/>
<path d="M154.831 51.9835L152.37 48.2031H151.531L154.463 52.5891V55.6611H155.176V52.5891L158.126 48.2031H157.28L154.831 51.9835Z" fill="white"/>
<path d="M173.007 54.7435L170.524 48.2031H169.479V55.6611H170.189V49.2161H170.211L172.672 55.6611H173.342L175.894 49.2161H175.916V55.6611H176.626V48.2031H175.582L173.007 54.7435Z" fill="white"/>
<path d="M184.182 48.2031L181.177 55.6611H181.912L182.813 53.3415H186.212L187.124 55.6611H187.889L184.947 48.2031H184.182ZM183.052 52.7359L184.546 48.9115L185.991 52.7359H183.052Z" fill="white"/>
<path d="M197.652 54.5123H197.634L193.279 48.2031H192.484V55.6611H193.194V49.3519H193.216L197.571 55.6611H198.366V48.2031H197.652V54.5123Z" fill="white"/>
<path d="M205.961 48.2031L202.956 55.6611H203.692L204.593 53.3415H207.999L208.907 55.6611H209.672L206.73 48.2031H205.961ZM204.828 52.7359L206.329 48.9115L207.774 52.7359H204.828Z" fill="white"/>
<path d="M217.483 52.4718H220.024C220.036 52.8452 219.983 53.2178 219.866 53.5729C219.763 53.8928 219.592 54.1869 219.366 54.4354C219.137 54.6833 218.857 54.8787 218.546 55.0079C218.194 55.1459 217.82 55.2145 217.442 55.2098C217 55.2226 216.561 55.1255 216.166 54.9272C215.822 54.7541 215.523 54.5027 215.294 54.1931C215.062 53.8765 214.891 53.5192 214.79 53.1398C214.574 52.3541 214.574 51.525 214.79 50.7394C214.892 50.3625 215.062 50.0078 215.294 49.6934C215.523 49.3841 215.822 49.1327 216.166 48.9593C216.562 48.7626 217 48.6656 217.442 48.6767C217.771 48.6722 218.099 48.7308 218.406 48.8492C218.675 48.953 218.924 49.1034 219.141 49.2933C219.337 49.464 219.502 49.6663 219.631 49.8916C219.748 50.0931 219.822 50.3169 219.848 50.5486H220.558C220.504 50.169 220.379 49.8028 220.19 49.4695C220.008 49.1725 219.774 48.9113 219.498 48.6987C219.22 48.4856 218.905 48.3262 218.568 48.229C218.21 48.1221 217.838 48.0689 217.464 48.0711C216.933 48.0596 216.406 48.1688 215.923 48.3904C215.496 48.59 215.119 48.8821 214.82 49.2456C214.522 49.6123 214.298 50.032 214.158 50.4825C213.865 51.4395 213.865 52.4617 214.158 53.4187C214.295 53.8679 214.52 54.2857 214.82 54.6482C215.119 55.0117 215.496 55.3039 215.923 55.5034C216.407 55.722 216.933 55.8298 217.464 55.8191C217.73 55.8204 217.995 55.7933 218.255 55.7383C218.505 55.6822 218.747 55.5921 218.972 55.4704C219.445 55.2098 219.822 54.8063 220.05 54.3179H220.072L220.168 55.6759H220.679V51.8699H217.508L217.483 52.4718Z" fill="white"/>
<path d="M226.637 52.1083H230.805V51.5027H226.637V48.8087H231.088V48.2031H225.927V55.6611H231.139V55.0555H226.637V52.1083Z" fill="white"/>
<path d="M239.54 54.7435L237.057 48.2031H236.013V55.6611H236.726V49.2161H236.745L239.205 55.6611H239.875L242.428 49.2161H242.45V55.6611H243.16V48.2031H242.115L239.54 54.7435Z" fill="white"/>
<path d="M249.25 52.1083H253.417V51.5027H249.25V48.8087H253.697V48.2031H248.54V55.6611H253.752V55.0555H249.25V52.1083Z" fill="white"/>
<path d="M263.805 54.5123H263.783L259.432 48.2031H258.637V55.6611H259.347V49.3519H259.369L263.721 55.6611H264.519V48.2031H263.805V54.5123Z" fill="white"/>
<path d="M269.124 48.8087H271.721V55.6611H272.431V48.8087H275.039V48.2031H269.124V48.8087Z" fill="white"/>
<path d="M284.014 20.1645H284.764V22.1427H284.97V20.1645H285.724V19.9883H284.014V20.1645Z" fill="white"/>
<path d="M287.691 19.9883L286.948 21.8785L286.231 19.9883H285.929V22.1427H286.132V20.2819H286.139L286.853 22.1427H287.044L287.783 20.2819H287.791V22.1427H287.997V19.9883H287.691Z" fill="white"/>
<path d="M57.6494 27.6241C57.642 27.2878 57.533 26.9616 57.3367 26.6882L57.2374 26.5267C56.6684 25.6346 55.9942 24.814 55.2291 24.0823C54.0141 22.9481 52.6966 21.9283 51.2935 21.036C50.3261 20.3827 49.5868 19.5422 49.436 18.3603C49.32 17.421 48.8376 16.5652 48.0935 15.9783C43.809 12.3234 39.1195 9.16972 34.1164 6.5788C34.0052 6.5415 33.9064 6.47461 33.8305 6.38535C33.7547 6.29608 33.7047 6.18784 33.686 6.0723C34.0482 5.98197 34.4173 5.92182 34.7895 5.89246C34.9256 5.89246 35.0617 5.89246 35.2014 5.89246C36.4724 6.67641 37.6901 7.54325 38.8465 8.48733C38.5098 7.47703 37.8768 6.59092 37.0295 5.94384C37.7651 6.01725 38.5375 6.13837 39.2916 6.24847H39.3394C39.7661 6.53842 40.2001 6.81736 40.6157 7.11099C42.2163 8.2279 43.7537 9.43236 45.2208 10.7189C44.7207 9.10473 43.793 7.65534 42.5357 6.52374C42.8337 6.72928 43.1426 6.91646 43.4332 7.14402C44.5823 8.02071 45.6004 9.05635 46.4567 10.2197C45.721 7.28349 43.3854 4.76936 40.6415 3.44072C39.3783 2.78124 38.0411 2.27364 36.658 1.92857C38.9173 2.18561 41.1498 2.63877 43.3302 3.2829C38.8991 0.781424 33.8164 -0.332416 28.7425 0.0861009C23.6599 0.503835 18.8385 2.5099 14.9641 5.81905C7.66896 10.7963 2.57664 18.3873 0.745598 27.0143C-1.08545 35.6413 0.485642 44.6405 5.1323 52.1414C5.23896 52.3323 5.35299 52.5085 5.47069 52.6993C9.07664 58.3012 14.2244 62.7472 20.2974 65.5049L20.4151 65.5893L20.3747 65.5416C24.818 67.5545 29.6411 68.5969 34.521 68.5989C35.7507 68.5877 36.9789 68.5056 38.1992 68.353L38.1697 68.375C38.1697 68.375 41.1601 68.1108 42.521 67.4978C42.521 67.4978 43.0286 58.3993 40.5348 54.9749V55.0373C39.5155 52.9733 38.1692 51.087 36.5476 49.4511C36.5293 49.4328 36.4888 49.4511 36.441 49.4254C38.3463 54.5969 39.0415 59.8196 37.4598 65.1819C37.4821 62.685 37.007 60.2086 36.0621 57.8964C35.1495 55.694 34.03 53.5828 32.7187 51.5909C30.9495 48.8162 29.1214 46.0855 27.5104 43.208C25.366 39.3763 23.6005 35.3977 22.6404 31.0962C22.4789 30.5455 22.4982 29.9577 22.6956 29.4188C23.9719 31.988 25.0717 34.5866 27.0506 36.6603C29.0294 38.734 31.4092 40.1801 33.984 41.3802C31.0414 37.2952 28.2975 33.1258 26.646 28.3361C27.4759 29.015 28.2394 29.7708 28.9265 30.5933C31.2253 33.2653 34.1384 35.071 37.2796 36.5685L37.3385 36.4878C37.0957 36.2235 36.8529 35.9556 36.6028 35.6987C34.1527 33.2239 32.0302 30.4461 30.2874 27.4332C30.2249 27.3231 30.1108 27.224 30.1439 27.0662C30.2506 27.1139 30.3315 27.147 30.4124 27.1873C31.5128 27.8342 32.5369 28.6024 33.4653 29.4776C34.1034 30.0582 34.8158 30.5519 35.584 30.9457C35.7164 31.0117 35.8451 31.1108 35.9849 30.92C36.1247 30.7291 36.0768 30.6337 35.9665 30.4832C35.5178 29.8556 35.0874 29.2133 34.6276 28.593C34.4511 28.3471 34.5651 28.2884 34.7858 28.2664C34.9205 28.2616 35.0549 28.2835 35.1812 28.3307C35.3074 28.3779 35.4231 28.4496 35.5214 28.5417C36.3726 29.2083 37.309 29.7588 38.3058 30.1786C39.8925 30.8709 41.5129 31.4834 43.161 32.0137C43.8672 32.2633 43.9187 32.5349 43.4442 33.1148C42.8469 33.8252 42.3799 34.6353 42.0649 35.5078C41.5831 36.8438 41.7302 38.077 42.7307 39.1781C43.2809 39.7409 43.9388 40.1877 44.6654 40.492C45.0332 40.6609 45.401 40.8113 45.8277 40.9875L45.2576 41.3288C44.1215 41.942 43.093 42.7353 42.212 43.6778C41.8624 44.0393 41.5853 44.4641 41.3955 44.9294C41.2844 45.178 41.2632 45.4574 41.3357 45.7198C41.4081 45.9822 41.5697 46.2114 41.7927 46.3681C42.0499 46.5625 42.3319 46.7217 42.6314 46.8416C44.7554 47.6842 47.0413 48.0429 49.322 47.8913C49.6958 47.8763 50.0619 47.7803 50.3948 47.6098C50.7276 47.4393 51.0193 47.1984 51.2493 46.904C52.323 45.6351 53.1399 44.1706 53.6549 42.5914C53.8388 42.0446 54.0006 41.4903 54.1441 40.9361C54.3317 40.2461 54.1441 39.9635 53.4305 39.8974C52.8377 39.8926 52.2474 39.9767 51.6797 40.147C51.0954 40.3191 50.4703 40.292 49.9031 40.07C50.8172 39.2899 51.9421 38.797 53.1362 38.6532C54.3721 38.5174 55.299 38.0256 55.8875 36.8952C56.4922 35.7939 56.9768 34.6311 57.3331 33.4268C57.608 32.4813 57.7419 31.5006 57.7303 30.5163C57.7875 30.1333 57.8207 29.7472 57.8296 29.3601C57.839 28.8384 57.7872 28.3173 57.6751 27.8076L57.6494 27.6241ZM8.65967 21.9205C8.79209 21.6269 8.93186 21.3333 9.07163 21.0396C9.07163 21.5645 9.10473 22.0893 9.15991 22.6068C9.18933 22.8968 9.23715 23.1794 9.27761 23.4657C9.20493 23.4837 9.13948 23.5234 9.09002 23.5795C8.37693 24.2228 7.71301 24.9184 7.1038 25.6605C7.60404 24.4028 8.12266 23.1562 8.65967 21.9205ZM26.7085 66.1288C24.7149 64.4919 22.8096 62.7522 20.8234 61.0932C20.577 60.8877 20.3342 60.6748 20.0878 60.4693C18.4458 58.6192 16.955 56.6407 15.6298 54.5528C16.2771 56.2754 17.1424 57.9085 18.2046 59.4122C18.12 59.4379 20.1871 62.1392 20.1025 62.2016C20.1025 62.2016 17.6344 60.0325 17.697 60.3371C15.0082 56.8064 12.805 52.9159 10.1935 49.1098C10.9648 51.7556 12.0127 54.3132 13.3199 56.7403C12.5843 55.7616 11.8867 54.7473 11.227 53.6976C9.15255 50.2402 7.54887 46.4819 6.07759 42.5878C6.61829 47.1609 7.91668 51.7928 10.5135 55.8007C11.2657 56.961 12.1016 58.065 13.0146 59.1039C10.695 57.1153 8.66144 54.8168 6.97139 52.2736C6.57047 51.4588 6.18794 50.6366 5.83483 49.8035C4.74363 47.2622 3.88196 44.6287 3.2601 41.9344C3.13353 42.662 3.06343 43.3983 3.05044 44.1366C1.59577 39.6634 1.14619 34.9255 1.73365 30.2593C1.65443 33.1476 2.07373 36.0279 2.97321 38.7743C3.18654 37.8164 3.42194 36.8805 3.66838 35.9629C2.99527 30.6374 3.96264 25.0586 6.61093 20.4451C5.10983 26.9965 4.71206 33.7515 5.43391 40.4333C6.12933 43.0912 7.27235 45.6119 8.81416 47.8876C7.94933 44.9873 7.25663 42.0386 6.73966 39.057C6.82458 39.1581 6.90438 39.2635 6.97875 39.3726C6.82226 38.4565 6.87379 37.5171 7.12955 36.6236C7.17369 36.8401 7.20311 36.9906 7.23622 37.1337C7.42013 37.9339 7.45691 38.7633 7.74748 39.5341C9.21876 43.4649 11.4772 46.9444 14.1475 50.1522C14.4381 50.5192 14.7581 50.8275 15.0524 51.1725L15.376 51.5395C20.1981 57.0926 25.6308 62.0328 31.1481 66.8812C31.1481 66.8812 31.1738 66.9179 31.1885 66.9289C29.6786 66.7651 28.1817 66.4978 26.7085 66.1288ZM26.0979 55.7016C25.0202 54.4464 24.005 53.1544 22.9862 51.8662C23.6626 53.1482 24.4386 54.3754 25.3071 55.5364C25.9802 56.1494 26.6717 56.7403 27.3963 57.2908C27.9885 57.9882 28.5734 58.6892 29.2134 59.3535C29.354 59.4563 29.4613 59.598 29.5223 59.7609C29.3347 59.7169 29.1545 59.6545 28.989 59.5994C30.7497 61.2309 32.7306 62.6083 34.8741 63.6918C32.6832 63.2889 30.5942 62.456 28.7284 61.2412C26.8626 60.0265 25.2571 58.4542 24.005 56.6155C23.4938 56.2742 22.9715 55.9548 22.4676 55.6025C21.0007 53.8709 19.6339 52.0573 18.3738 50.1705C15.774 46.2962 13.6512 42.1237 12.051 37.743C12.5958 42.4568 14.2438 46.9766 16.862 50.9376C15.4058 49.4845 14.1469 47.8471 13.1176 46.0672C13.0882 46.0158 13.0661 45.9607 13.0367 45.9093C12.1676 43.7608 11.4535 41.553 10.8997 39.3029C9.86156 35.0264 9.43068 30.6255 9.61968 26.2294C9.60819 26.2619 9.59836 26.295 9.59025 26.3285C9.54611 26.0349 9.54611 25.7339 9.51669 25.4366C8.94527 27.4319 8.60467 29.486 8.50151 31.5586C8.30044 29.9877 8.16067 28.3973 8.0822 26.7873C8.42427 25.9651 8.77002 25.1467 9.08267 24.3135C9.17393 24.0929 9.24892 23.866 9.30704 23.6345C9.90053 27.0973 11.2163 30.3972 13.1691 33.3203C12.1392 29.6501 11.2123 26.0642 10.8445 22.4453C10.6655 20.6953 10.6408 18.9329 10.771 17.1785C11.8497 14.4527 13.6022 12.0437 15.8652 10.1757C14.4003 12.8545 13.1222 15.6309 12.0399 18.4851C13.8438 15.4199 15.8491 12.4773 18.0427 9.6765L18.6901 9.0599C18.7268 9.05033 18.7655 9.0511 18.8019 9.06211C18.8382 9.07312 18.8708 9.09395 18.8961 9.12229C18.4915 9.33883 18.3958 9.74623 18.2082 10.0802C17.5542 11.1269 17.0258 12.2467 16.634 13.4165C16.099 15.497 16.2275 17.6922 17.0018 19.6963C17.7476 21.6402 18.7231 23.4884 19.9076 25.2017C19.9848 25.3228 20.0584 25.4476 20.1613 25.6201C19.0296 25.3709 17.9916 24.8072 17.1673 23.9942C16.2244 22.2203 15.5501 20.3168 15.1664 18.3457C15.077 20.5881 15.5981 22.8128 16.6744 24.7833C16.8159 25.5585 17.0039 26.3245 17.2372 27.0772C17.8956 29.2133 18.8372 31.2356 19.6243 33.3167C19.7387 33.5226 19.8018 33.753 19.8082 33.9883C18.6453 33.021 17.6369 31.8823 16.8179 30.6117C16.0555 29.4106 15.3819 28.1557 14.8022 26.857C14.0906 24.4462 13.5243 21.9949 13.1066 19.5165C12.2937 26.545 14.5779 33.9773 19.0873 39.4864C19.0744 40.0143 19.0928 40.5425 19.1425 41.0683C19.1719 41.3692 19.2234 41.6628 19.2675 41.9601C17.5566 39.6635 15.9915 37.2621 14.5815 34.7701C15.3598 39.0276 17.3965 42.9556 20.4299 46.0488C20.4997 46.2213 20.5623 46.4158 20.6432 46.57C20.7866 46.8893 20.9485 47.1976 21.0993 47.5132C21.0993 47.4105 21.0993 47.304 21.0993 47.2013C21.206 47.5683 21.3494 47.9023 21.4671 48.2583C22.768 50.8818 24.3188 53.3744 26.0979 55.7016ZM23.5232 11.4933C22.5853 12.532 22.3719 13.8092 22.28 15.1268C22.2511 15.9857 22.2979 16.8454 22.4198 17.696C21.7572 17.0879 21.2265 16.3508 20.8602 15.5302C20.4939 14.7096 20.2999 13.8229 20.2901 12.9247C20.2459 11.1556 21.4597 10.4986 22.7361 10.4546C22.9421 10.4525 23.145 10.5044 23.3246 10.6051C23.7807 10.8363 23.8653 11.1299 23.5232 11.4933ZM40.4428 19.8064C39.755 20.0523 39.6005 20.3203 39.7072 21.036C39.7808 21.4434 39.9058 21.8434 40.0272 22.3352C37.2411 21.0466 34.311 20.0942 31.2989 19.4981C34.12 17.8649 39.1224 17.663 41.7891 19.388C41.3366 19.5312 40.8769 19.6486 40.4428 19.8064ZM57.2779 30.1419C56.8687 30.472 56.5159 30.8662 56.2333 31.309C55.9591 31.7292 55.6397 32.1181 55.2806 32.4688C55.1004 32.634 55.0011 32.634 54.9128 32.3807C54.7657 31.9623 54.6002 31.5439 54.4273 31.1255C54.3666 30.9346 54.248 30.7671 54.0879 30.6461C53.9279 30.5252 53.7342 30.4567 53.5335 30.4502C53.1356 30.429 52.739 30.3873 52.3454 30.3254C51.6098 30.2043 50.9367 29.0335 51.0654 28.1232L51.4774 28.215C53.1301 28.6376 54.8537 28.7064 56.5349 28.4169C56.8116 28.3819 57.0783 28.2907 57.3183 28.1489C57.2889 28.516 57.2816 28.938 57.2595 29.3454C57.2558 29.5914 57.2632 29.8666 57.2779 30.1419Z" fill="white"/>
</svg>
