<svg width="238" height="56" viewBox="0 0 238 56" fill="none" xmlns="http://www.w3.org/2000/svg">
<g clip-path="url(#clip0_6063_892)">
<path d="M73.6041 35.5138C70.7224 35.289 68.5246 32.7302 65.3299 26.7108C67.5823 25.9797 69.239 24.2658 69.239 22.1834C69.239 20.101 67.4394 17.4883 62.7613 17.4883C62.4178 17.4883 61.4481 17.5722 60.4511 17.6561C59.454 17.74 58.4813 17.7969 58.1105 17.7969C57.7396 17.7969 56.086 17.7699 55.6787 17.7699L55.5662 18.501C56.1741 18.528 57.3049 18.5549 57.4782 19.8224C57.5633 20.4696 57.5907 21.0598 57.5907 24.7152C57.5907 26.1505 57.5329 32.5894 57.3353 33.3505C57.1347 34.2493 56.6787 34.4471 55.4507 34.8126V35.4868C56.6144 35.3458 57.7861 35.2798 58.9585 35.289C59.758 35.289 60.1744 35.289 60.673 35.319C61.1715 35.349 61.6426 35.3729 62.5546 35.4868L62.6701 34.8126C62.2688 34.7557 61.1289 34.513 60.7581 33.9677C60.3872 33.3684 60.3872 30.5639 60.3872 29.6351C60.3872 28.0621 60.4146 27.5557 60.445 26.9385C61.0131 27.0052 61.5843 27.0432 62.1564 27.0523C66.8558 36.2898 70.8348 36.2898 73.6041 36.2448V35.5138ZM61.8493 26.0666C61.4084 26.0873 60.9667 26.049 60.5362 25.9527C60.5088 23.5048 60.5088 23.1692 60.6213 20.4965C60.7064 18.6988 60.7064 18.3302 62.1898 18.3302C65.643 18.3302 66.1567 21.4523 66.1567 22.4651C66.1567 26.0666 63.2081 26.0666 61.8493 26.0666Z" fill="white"/>
<path d="M83.2488 17.4609C78.2849 17.4609 73.4912 20.9486 73.4912 26.4347C73.4912 31.3546 77.0599 35.7411 83.0786 35.7411C88.8997 35.7411 92.6659 31.2976 92.6659 26.5725C92.6659 21.4549 88.4711 17.4609 83.2488 17.4609ZM83.7078 34.7313C79.0843 34.7313 76.8319 29.5568 76.8319 24.9156C76.8319 19.1778 81.0875 18.5606 82.4524 18.5606C87.5592 18.5606 89.3556 24.7748 89.3556 28.4302C89.3496 33.6317 85.5317 34.7313 83.7078 34.7313Z" fill="white"/>
<path d="M104.911 33.7719C104.798 33.2086 104.798 28.079 104.798 27.0243L105.969 25.1097C109.391 19.4168 110.416 18.6977 112.386 18.6707L112.416 17.7719C111.987 17.7719 110.018 17.8258 109.562 17.8258C109.106 17.8258 108.422 17.7988 107.85 17.7719C107.279 17.7449 106.738 17.7149 106.479 17.7149L106.394 18.5299C107.194 18.5569 108.163 18.5569 108.163 19.4018C108.163 20.019 107.993 20.3007 104.397 25.8438C102.686 23.7883 99.5335 19.5127 99.5335 19.0093C99.5335 18.5059 100.792 18.5029 101.053 18.5029L101.169 17.7419L97.2537 17.7988C96.968 17.7988 96.1381 17.7719 95.3113 17.7419C94.4845 17.7119 93.6881 17.7149 93.4023 17.7149L93.5148 18.3891C95.3113 18.3891 96.1685 19.4288 97.2537 20.7531C100.22 24.6483 100.962 25.8468 101.847 27.249C101.874 27.7554 101.874 27.8962 101.874 28.2318C101.874 29.2176 101.874 33.0977 101.704 33.688C101.534 34.2782 101.248 34.6438 99.4788 34.7846L99.4484 35.4318C99.7341 35.4318 100.619 35.3749 101.476 35.3209C102.333 35.267 103.272 35.2071 103.585 35.2071C104.193 35.2071 104.871 35.237 105.497 35.291C106.124 35.3449 106.753 35.3749 107.212 35.4318L107.285 34.7936C106.653 34.7007 105.054 34.3651 104.911 33.7719Z" fill="white"/>
<path d="M114.446 33.4351C114.446 33.0127 114.929 31.8861 115.13 31.3797L115.984 29.3572C117.243 29.2006 118.512 29.1345 119.781 29.1595C120.466 29.143 121.151 29.171 121.833 29.2434C121.976 29.6389 123.374 33.3213 123.374 33.7168C123.374 34.364 122.69 34.6426 121.948 34.7565V35.3917C122.833 35.3378 124.173 35.1969 125.942 35.1969C126.55 35.1969 126.997 35.1969 127.399 35.2269C127.8 35.2569 128.137 35.2808 128.453 35.3108V34.7475C127.313 34.5797 126.827 34.4928 125.173 29.9535C124.602 28.4554 121.751 21.2074 121.149 19.5505C120.808 18.6217 120.635 18.0014 120.465 17.4531H119.723C119.553 17.9565 119.38 18.4629 119.097 19.167C118.723 20.1228 113.79 32.0749 112.79 33.6509C112.61 33.952 112.362 34.2079 112.065 34.3982C111.768 34.5886 111.43 34.7082 111.078 34.7475V35.3108C111.534 35.2808 112.732 35.2808 113.075 35.2808L114.732 35.3378C115.556 35.3677 116.413 35.3917 116.614 35.3917V34.7475C115.814 34.6426 114.446 34.4748 114.446 33.4351ZM118.924 22.0494C119.869 24.0377 120.708 26.074 121.435 28.1498C120.82 28.2326 120.2 28.2706 119.58 28.2636C118.548 28.2551 117.517 28.17 116.498 28.0089L118.924 22.0494Z" fill="white"/>
<path d="M144.719 35.5452C145.691 32.7047 145.719 32.507 145.834 31.6081L145.147 31.5242C144.691 32.8426 144.007 34.083 138.46 34.083C137.147 34.083 136.463 34.083 136.235 33.6605C136.007 33.2381 135.949 32.3662 135.949 30.6223L135.979 26.2927C135.979 25.0253 136.034 19.9077 136.435 19.1766C136.721 18.6703 137.517 18.5294 138.432 18.4186V17.6875C137.347 17.7414 136.806 17.7714 134.636 17.7714C132.584 17.7714 132.237 17.7414 131.155 17.7145V18.3886C131.982 18.4456 132.812 18.5294 132.955 19.71C133.037 20.4141 133.037 20.9085 133.037 26.095C133.009 32.9564 133.009 33.2381 132.526 33.8283C132.155 34.2778 131.414 34.4485 130.927 34.5025L130.985 35.2066H138.928C140.867 35.2066 142.01 35.2366 142.81 35.2905C143.451 35.3358 144.088 35.4209 144.719 35.5452Z" fill="white"/>
<path d="M168.095 34.7924C167.466 34.7085 165.867 34.3729 165.724 33.7797C165.581 33.1864 165.611 28.0868 165.611 27.0321L166.779 25.1175C170.204 19.4246 171.232 18.7055 173.199 18.6785L173.229 17.7797C172.8 17.7797 170.834 17.8336 170.375 17.8336C169.916 17.8336 169.235 17.8066 168.663 17.7797C168.092 17.7527 167.551 17.7227 167.295 17.7227L167.21 18.5377C168.007 18.5647 168.979 18.5647 168.979 19.4096C168.979 20.0269 168.806 20.3085 165.21 25.8516C163.499 23.7961 160.362 19.5205 160.362 19.0171C160.362 18.5138 161.617 18.5108 161.882 18.5108L161.997 17.7497L158.088 17.8066C157.802 17.8066 156.975 17.7797 156.149 17.7497C155.322 17.7197 154.522 17.7227 154.237 17.7227L154.349 18.3969C156.149 18.3969 157.003 19.4366 158.088 20.7609C161.055 24.6561 161.796 25.8546 162.681 27.2568C162.708 27.7632 162.708 27.904 162.708 28.2396C162.708 29.2254 162.708 33.1055 162.538 33.6958C162.368 34.286 162.082 34.6516 160.313 34.7924L160.286 35.4396C160.568 35.4396 161.456 35.3827 162.31 35.3287C163.164 35.2748 164.11 35.2149 164.42 35.2149C165.028 35.2149 165.706 35.2448 166.335 35.2988C166.964 35.3527 167.587 35.3827 168.046 35.4396L168.095 34.7924Z" fill="white"/>
<path d="M184.588 17.4609C179.624 17.4609 174.83 20.9486 174.83 26.4347C174.83 31.3546 178.396 35.7411 184.418 35.7411C190.239 35.7411 194.005 31.2976 194.005 26.5725C194.005 21.4549 189.81 17.4609 184.588 17.4609ZM185.044 34.7313C180.423 34.7313 178.171 29.5568 178.171 24.9156C178.171 19.1778 182.427 18.5606 183.791 18.5606C188.898 18.5606 190.695 24.7748 190.695 28.4302C190.695 33.6317 186.871 34.7313 185.044 34.7313Z" fill="white"/>
<path d="M202.086 29.6351C202.086 28.0621 202.113 27.5557 202.141 26.9385C202.71 27.0052 203.282 27.0432 203.855 27.0523C208.533 36.2898 212.527 36.2898 215.294 36.2448V35.5138C212.415 35.289 210.214 32.7302 207.019 26.7108C209.275 25.9797 210.929 24.2658 210.929 22.1834C210.929 20.101 209.132 17.4883 204.454 17.4883C204.11 17.4883 203.141 17.5722 202.141 17.6561C201.141 17.74 200.174 17.7969 199.803 17.7969C199.432 17.7969 197.776 17.7699 197.371 17.7699L197.262 18.501C197.87 18.528 199.004 18.5549 199.174 19.8224C199.259 20.4696 199.289 21.0598 199.289 24.7152C199.289 26.1505 199.232 32.5894 199.031 33.3505C198.83 34.2493 198.374 34.4471 197.149 34.8126V35.4868C198.313 35.3457 199.485 35.2796 200.657 35.289C201.457 35.289 201.873 35.289 202.372 35.319C202.87 35.349 203.341 35.3729 204.253 35.4868L204.369 34.8126C203.968 34.7557 202.828 34.513 202.457 33.9677C202.086 33.3774 202.086 30.5639 202.086 29.6351ZM202.314 20.4965C202.396 18.6988 202.396 18.3302 203.882 18.3302C207.333 18.3302 207.834 21.4523 207.834 22.4651C207.834 26.0606 204.895 26.0606 203.527 26.0606C203.086 26.0811 202.644 26.0428 202.214 25.9467C202.198 23.5048 202.198 23.1692 202.314 20.4965Z" fill="white"/>
<path d="M224.399 25.1398C225.426 23.9413 226.509 22.4971 227.481 21.5113C227.679 21.3435 228.621 20.4147 228.794 20.2169C229.098 19.9173 230.39 18.6439 232.901 18.3622L232.874 17.6581C231.816 17.715 230.959 17.772 230.305 17.772L226.657 17.742V18.4461C227.396 18.4461 227.91 18.587 227.91 19.1473C227.91 19.4289 227.141 20.4147 226.94 20.6664L222.262 26.545L222.204 26.4881C222.232 26.0117 222.262 19.7944 222.578 18.9974C222.776 18.518 223.718 18.3772 224.572 18.2364V17.5742C223.517 17.6581 222.347 17.742 221.064 17.742C220.551 17.742 218.025 17.6581 217.441 17.6581L217.468 18.3053C218.666 18.5001 218.955 18.6708 219.18 19.345C219.353 19.8514 219.411 25.6731 219.411 26.518C219.411 27.0514 219.353 33.0409 218.894 33.8289C218.554 34.5031 217.784 34.56 217.298 34.6169V35.2911C218.554 35.2641 219.836 35.2371 220.979 35.2371C221.919 35.2371 222.548 35.2371 223.061 35.2911C223.571 35.3226 224.078 35.3796 224.581 35.4619V34.7937C223.04 34.4941 222.615 34.1195 222.499 33.8948C222.213 33.3615 222.213 28.1001 222.213 27.2851C224.438 29.3106 229.062 34.0626 229.062 34.4282C229.062 34.7278 228.664 34.7937 228.12 34.8506L228.177 35.4109C229.375 35.3001 230.831 35.3001 232.059 35.3001C232.913 35.3001 233.427 35.3001 233.825 35.33C234.223 35.36 234.454 35.384 234.71 35.4109V34.7937C233.427 34.3742 231.6 32.7143 231.488 32.6304C230.105 31.354 224.94 25.73 224.399 25.1398Z" fill="white"/>
<path d="M68.5805 39.8071C68.4131 39.6548 68.2154 39.5385 67.9999 39.4656C67.7566 39.3874 67.5019 39.3489 67.246 39.3517H64.5103V45.4401H65.1V42.8304H67.2521C67.5083 42.8337 67.7632 42.7941 68.006 42.7135C68.2225 42.643 68.4208 42.5263 68.5866 42.3719C68.7499 42.2185 68.8766 42.0312 68.9574 41.8236C69.1316 41.3503 69.1316 40.8317 68.9574 40.3584C68.8746 40.1495 68.7459 39.9612 68.5805 39.8071ZM68.1124 42.0274C67.827 42.2393 67.4751 42.3454 67.1184 42.327H65.0939V39.8371H67.1184C67.4751 39.8187 67.827 39.9248 68.1124 40.1367C68.3566 40.3896 68.4928 40.7254 68.4928 41.0745C68.4928 41.4237 68.3566 41.7595 68.1124 42.0124V42.0274Z" fill="white"/>
<path d="M77.8171 44.6981C77.7989 44.5482 77.7867 44.3984 77.7837 44.2516C77.7807 44.1048 77.7837 43.979 77.7655 43.8771C77.755 43.7066 77.7306 43.5373 77.6925 43.3707C77.6574 43.2223 77.5956 43.0813 77.5101 42.9542C77.4245 42.8328 77.3136 42.7306 77.1849 42.6546C77.0296 42.5708 76.8592 42.5179 76.6833 42.4988V42.4808C76.8646 42.4548 77.0388 42.3931 77.1954 42.2994C77.3521 42.2057 77.488 42.082 77.5952 41.9355C77.8004 41.6393 77.9067 41.2874 77.8992 40.9288C77.9044 40.6827 77.8524 40.4388 77.7472 40.2157C77.6512 40.0226 77.5119 39.8536 77.3399 39.7213C77.1574 39.5892 76.9511 39.4926 76.7319 39.4366C76.4959 39.3746 76.2527 39.3434 76.0085 39.3438H73.1785V45.4321H73.7682V42.7355H75.9994C76.2261 42.7124 76.4546 42.7596 76.6529 42.8703C76.8093 42.9703 76.9353 43.1101 77.0177 43.2748C77.1034 43.4556 77.1588 43.6489 77.1818 43.8471C77.2061 44.0599 77.2244 44.2756 77.2365 44.4883C77.2365 44.5542 77.2426 44.6291 77.2548 44.713C77.2548 44.7969 77.2548 44.8838 77.276 44.9737C77.2855 45.0593 77.2998 45.1443 77.3186 45.2284C77.3355 45.3023 77.3642 45.3731 77.4037 45.4381H78.0512C77.9801 45.3497 77.9283 45.2476 77.8992 45.1385C77.8611 44.9938 77.8337 44.8466 77.8171 44.6981ZM76.4766 42.1602C76.3119 42.2142 76.1395 42.2416 75.9659 42.2411H73.7682V39.8441H75.975C76.1557 39.8297 76.3374 39.8509 76.5096 39.9065C76.6818 39.962 76.8411 40.0508 76.9782 40.1677C77.0925 40.2874 77.1806 40.4289 77.2371 40.5835C77.2936 40.7382 77.3172 40.9026 77.3064 41.0666C77.3109 41.2317 77.2774 41.3956 77.2085 41.5461C77.1395 41.6966 77.0369 41.8297 76.9082 41.9355C76.78 42.0365 76.6335 42.1127 76.4766 42.1602Z" fill="white"/>
<path d="M86.942 40.1861C86.6935 39.8904 86.3822 39.6521 86.0301 39.4879C85.6322 39.3068 85.1976 39.2176 84.7594 39.2273C84.3194 39.2179 83.8829 39.3071 83.4828 39.4879C83.1303 39.6516 82.8189 39.89 82.5708 40.1861C82.324 40.4858 82.1382 40.8296 82.0237 41.1988C81.7857 41.9806 81.7857 42.814 82.0237 43.5958C82.1381 43.9632 82.3239 44.3051 82.5708 44.6026C82.819 44.8978 83.1305 45.1351 83.4828 45.2977C83.8829 45.4786 84.3194 45.5677 84.7594 45.5584C85.1976 45.568 85.6322 45.4789 86.0301 45.2977C86.382 45.1346 86.6934 44.8973 86.942 44.6026C87.1871 44.3044 87.3718 43.9626 87.4861 43.5958C87.728 42.8146 87.728 41.98 87.4861 41.1988C87.3715 40.8303 87.1869 40.4866 86.942 40.1861ZM86.942 43.3771C86.8574 43.6858 86.7173 43.977 86.5286 44.237C86.3378 44.487 86.0927 44.6917 85.8112 44.8363C85.4856 44.9985 85.1241 45.0778 84.7594 45.067C84.3929 45.0778 84.0293 44.9985 83.7016 44.8363C83.4183 44.6932 83.1719 44.4883 82.9812 44.237C82.7926 43.9765 82.6517 43.6854 82.5648 43.3771C82.3864 42.7368 82.3864 42.0609 82.5648 41.4205C82.6505 41.1126 82.7915 40.8224 82.9812 40.5636C83.1713 40.3118 83.4179 40.1067 83.7016 39.9644C84.0299 39.8035 84.393 39.7243 84.7594 39.7336C85.1239 39.7242 85.4852 39.8034 85.8112 39.9644C86.0927 40.1089 86.3378 40.3136 86.5286 40.5636C86.7185 40.8219 86.8586 41.1123 86.942 41.4205C87.1204 42.0609 87.1204 42.7368 86.942 43.3771Z" fill="white"/>
<path d="M95.89 39.8071C95.7227 39.6548 95.5249 39.5385 95.3095 39.4656C95.0661 39.3874 94.8115 39.3489 94.5556 39.3517H91.8198V45.4401H92.3913V42.8304H94.5434C94.7996 42.8337 95.0545 42.7941 95.2973 42.7135C95.5139 42.643 95.7121 42.5263 95.8779 42.3719C96.0413 42.2185 96.1679 42.0312 96.2487 41.8236C96.4189 41.3496 96.4189 40.8324 96.2487 40.3584C96.1713 40.1512 96.0489 39.963 95.89 39.8071ZM95.431 42.0274C95.1449 42.24 94.7918 42.3461 94.434 42.327H92.3913V39.8371H94.4127C94.7705 39.818 95.1236 39.9241 95.4098 40.1367C95.654 40.3896 95.7902 40.7254 95.7902 41.0745C95.7902 41.4237 95.654 41.7595 95.4098 42.0124L95.431 42.0274Z" fill="white"/>
<path d="M101.078 42.5396H104.522V42.0452H101.078V39.8459H104.756V39.3516H100.491V45.4399H104.799V44.9456H101.078V42.5396Z" fill="white"/>
<path d="M113.48 44.6981C113.48 44.5482 113.452 44.3984 113.446 44.2516C113.44 44.1048 113.446 43.979 113.428 43.8771C113.421 43.7063 113.396 43.5367 113.355 43.3707C113.322 43.2221 113.261 43.0808 113.176 42.9542C113.089 42.8335 112.979 42.7315 112.851 42.6546C112.695 42.5717 112.525 42.5189 112.349 42.4988V42.4808C112.53 42.4543 112.704 42.3924 112.861 42.2987C113.017 42.2051 113.153 42.0816 113.261 41.9355C113.466 41.6394 113.573 41.2874 113.565 40.9288C113.571 40.683 113.52 40.4391 113.416 40.2157C113.32 40.0226 113.181 39.8536 113.009 39.7213C112.826 39.59 112.619 39.4935 112.401 39.4366C112.165 39.375 111.921 39.3438 111.677 39.3438H108.847V45.4321H109.437V42.7355H111.668C111.895 42.7124 112.123 42.7596 112.322 42.8703C112.478 42.9695 112.603 43.1096 112.683 43.2748C112.771 43.4549 112.828 43.6484 112.851 43.8471C112.875 44.0599 112.893 44.2756 112.905 44.4883C112.905 44.5542 112.905 44.6291 112.923 44.713C112.942 44.7969 112.923 44.8838 112.945 44.9737C112.953 45.0595 112.967 45.1446 112.987 45.2284C113.003 45.3021 113.031 45.3729 113.069 45.4381H113.717C113.648 45.3488 113.597 45.247 113.568 45.1385C113.526 44.9943 113.497 44.847 113.48 44.6981ZM112.148 42.1602C111.985 42.2145 111.813 42.2418 111.641 42.2411H109.443V39.8441H111.641C111.821 39.8301 112.003 39.8514 112.175 39.907C112.347 39.9625 112.507 40.0511 112.644 40.1677C112.758 40.2874 112.846 40.4289 112.903 40.5835C112.959 40.7382 112.983 40.9026 112.972 41.0666C112.975 41.2385 112.938 41.4089 112.863 41.564C112.79 41.7084 112.687 41.8353 112.559 41.9355C112.436 42.0334 112.297 42.1094 112.148 42.1602Z" fill="white"/>
<path d="M117.237 39.8459H119.383V45.4399H119.97V39.8459H122.125V39.3516H117.237V39.8459Z" fill="white"/>
<path d="M127.956 42.4377L125.923 39.3516H125.229L127.652 42.9321V45.4399H128.242V42.9321L130.68 39.3516H129.981L127.956 42.4377Z" fill="white"/>
<path d="M142.971 44.6909L140.919 39.3516H140.055V45.4399H140.642V40.1785H140.66L142.694 45.4399H143.247L145.357 40.1785H145.375V45.4399H145.962V39.3516H145.098L142.971 44.6909Z" fill="white"/>
<path d="M152.209 39.3516L149.726 45.4399H150.334L151.078 43.5463H153.887L154.641 45.4399H155.273L152.841 39.3516H152.209ZM151.276 43.0519L152.51 39.9298L153.705 43.0519H151.276Z" fill="white"/>
<path d="M163.341 44.5021H163.325L159.726 39.3516H159.07V45.4399H159.656V40.2894H159.675L163.274 45.4399H163.93V39.3516H163.341V44.5021Z" fill="white"/>
<path d="M170.207 39.3516L167.723 45.4399H168.331L169.076 43.5463H171.891L172.642 45.4399H173.274L170.842 39.3516H170.207ZM169.271 43.0519L170.511 39.9298L171.705 43.0519H169.271Z" fill="white"/>
<path d="M179.725 42.8354H181.826C181.835 43.1402 181.791 43.4444 181.695 43.7342C181.61 43.9954 181.469 44.2355 181.281 44.4384C181.093 44.6408 180.861 44.8003 180.604 44.9058C180.313 45.0184 180.004 45.0744 179.692 45.0706C179.326 45.081 178.964 45.0017 178.637 44.8399C178.352 44.6986 178.106 44.4933 177.916 44.2406C177.724 43.9821 177.583 43.6904 177.5 43.3807C177.322 42.7393 177.322 42.0625 177.5 41.4211C177.584 41.1135 177.725 40.8239 177.916 40.5672C178.106 40.3147 178.353 40.1095 178.637 39.968C178.964 39.8074 179.326 39.7282 179.692 39.7372C179.964 39.7335 180.234 39.7813 180.488 39.8781C180.711 39.9628 180.917 40.0855 181.096 40.2406C181.258 40.38 181.394 40.5451 181.5 40.729C181.597 40.8935 181.659 41.0762 181.68 41.2653H182.266C182.222 40.9554 182.119 40.6565 181.962 40.3844C181.813 40.142 181.619 39.9287 181.391 39.7552C181.161 39.5812 180.9 39.4511 180.622 39.3717C180.326 39.2845 180.019 39.2411 179.71 39.2429C179.271 39.2335 178.835 39.3226 178.436 39.5035C178.083 39.6664 177.772 39.9049 177.524 40.2017C177.279 40.501 177.093 40.8437 176.977 41.2114C176.736 41.9927 176.736 42.8271 176.977 43.6084C177.091 43.9751 177.277 44.3162 177.524 44.6121C177.772 44.9089 178.083 45.1474 178.436 45.3103C178.836 45.4887 179.271 45.5768 179.71 45.568C179.93 45.569 180.149 45.5469 180.363 45.502C180.57 45.4562 180.77 45.3826 180.956 45.2833C181.347 45.0706 181.659 44.7411 181.847 44.3425H181.865L181.944 45.4511H182.367V42.344H179.746L179.725 42.8354Z" fill="white"/>
<path d="M187.293 42.5396H190.737V42.0452H187.293V39.8459H190.972V39.3516H186.707V45.4399H191.014V44.9456H187.293V42.5396Z" fill="white"/>
<path d="M197.96 44.6909L195.908 39.3516H195.044V45.4399H195.634V40.1785H195.649L197.683 45.4399H198.236L200.346 40.1785H200.364V45.4399H200.951V39.3516H200.087L197.96 44.6909Z" fill="white"/>
<path d="M205.979 42.5396H209.423V42.0452H205.979V39.8459H209.654V39.3516H205.392V45.4399H209.699V44.9456H205.979V42.5396Z" fill="white"/>
<path d="M218.011 44.5021H217.993L214.397 39.3516H213.74V45.4399H214.327V40.2894H214.345L217.941 45.4399H218.601V39.3516H218.011V44.5021Z" fill="white"/>
<path d="M222.406 39.8459H224.553V45.4399H225.139V39.8459H227.294V39.3516H222.406V39.8459Z" fill="white"/>
<path d="M234.713 16.4602H235.333V18.0752H235.504V16.4602H236.127V16.3164H234.713V16.4602Z" fill="white"/>
<path d="M237.747 16.3164L237.133 17.8595L236.541 16.3164H236.291V18.0752H236.458V16.5561H236.465L237.054 18.0752H237.212L237.823 16.5561H237.829V18.0752H238V16.3164H237.747Z" fill="white"/>
<path d="M47.6398 22.5512C47.6337 22.2767 47.5436 22.0104 47.3814 21.7871L47.2993 21.6553C46.8291 20.9271 46.2719 20.2571 45.6396 19.6598C44.6355 18.7339 43.5467 17.9014 42.3871 17.1729C41.5877 16.6396 40.9767 15.9534 40.852 14.9886C40.7562 14.2218 40.3575 13.5231 39.7425 13.0441C36.2017 10.0603 32.3262 7.48579 28.1915 5.37066C28.0996 5.34022 28.0179 5.28561 27.9553 5.21274C27.8926 5.13987 27.8513 5.0515 27.8358 4.95718C28.1352 4.88344 28.4402 4.83433 28.7478 4.81036C28.8602 4.81036 28.9727 4.81036 29.0882 4.81036C30.1386 5.45035 31.1449 6.15801 32.1006 6.92872C31.8224 6.10394 31.2992 5.38056 30.599 4.85231C31.2069 4.91224 31.8453 5.01111 32.4684 5.101H32.5079C32.8605 5.33771 33.2192 5.56542 33.5627 5.80512C34.8855 6.71692 36.156 7.7002 37.3685 8.75044C36.9552 7.43274 36.1885 6.24951 35.1495 5.32572C35.3957 5.49351 35.651 5.64632 35.8912 5.83209C36.8409 6.54778 37.6822 7.39324 38.3898 8.34295C37.7819 5.94595 35.8517 3.89351 33.584 2.80887C32.5401 2.27049 31.435 1.85611 30.292 1.57441C32.1591 1.78424 34.0041 2.15418 35.8061 2.68003C32.144 0.637923 27.9436 -0.271371 23.7504 0.0702893C19.55 0.411311 15.5655 2.04898 12.3635 4.75044C6.33466 8.81366 2.12623 15.0107 0.613008 22.0534C-0.900215 29.0961 0.398174 36.4427 4.23829 42.5662C4.32644 42.722 4.42068 42.8658 4.51795 43.0216C7.498 47.5948 11.7522 51.2243 16.7712 53.4755L16.8684 53.5444L16.835 53.5055C20.5071 55.1488 24.493 55.9997 28.5259 56.0014C29.5422 55.9922 30.5571 55.9252 31.5656 55.8006L31.5413 55.8186C31.5413 55.8186 34.0126 55.6029 35.1373 55.1025C35.1373 55.1025 35.5568 47.6748 33.4959 44.8793V44.9302C32.6535 43.2453 31.5409 41.7054 30.2008 40.3699C30.1856 40.3549 30.1521 40.3699 30.1126 40.3489C31.6872 44.5707 32.2617 48.8343 30.9546 53.2119C30.973 51.1735 30.5804 49.1518 29.7995 47.2643C29.0453 45.4664 28.1201 43.7428 27.0364 42.1167C25.5743 39.8516 24.0635 37.6224 22.7321 35.2733C20.9599 32.1452 19.5009 28.8973 18.7075 25.3856C18.574 24.9361 18.5899 24.4563 18.7531 24.0164C19.8079 26.1137 20.7168 28.2351 22.3521 29.928C23.9875 31.6209 25.9542 32.8014 28.0821 33.7812C25.6503 30.4463 23.3826 27.0426 22.0178 23.1325C22.7036 23.6867 23.3346 24.3036 23.9024 24.9752C25.8023 27.1564 28.2097 28.6306 30.8057 29.8531L30.8543 29.7871C30.6537 29.5714 30.4531 29.3527 30.2464 29.143C28.2215 27.1226 26.4675 24.855 25.0271 22.3954C24.9754 22.3055 24.8812 22.2246 24.9086 22.0958C24.9967 22.1347 25.0636 22.1617 25.1305 22.1946C26.0399 22.7227 26.8862 23.3499 27.6535 24.0643C28.1808 24.5383 28.7696 24.9413 29.4044 25.2628C29.5138 25.3167 29.6202 25.3976 29.7357 25.2418C29.8512 25.086 29.8117 25.0081 29.7205 24.8853C29.3496 24.3729 28.994 23.8486 28.614 23.3422C28.4681 23.1415 28.5623 23.0935 28.7447 23.0755C28.8561 23.0716 28.9671 23.0895 29.0715 23.128C29.1758 23.1666 29.2714 23.2251 29.3527 23.3003C30.0561 23.8444 30.8299 24.2938 31.6538 24.6366C32.965 25.2018 34.3042 25.7018 35.6662 26.1347C36.2499 26.3385 36.2924 26.5602 35.9003 27.0336C35.4066 27.6135 35.0207 28.2749 34.7604 28.9871C34.3622 30.0778 34.4838 31.0845 35.3106 31.9834C35.7653 32.4429 36.309 32.8076 36.9095 33.0561C37.2135 33.1939 37.5174 33.3167 37.8701 33.4606L37.3989 33.7392C36.46 34.2397 35.61 34.8874 34.882 35.6568C34.593 35.9519 34.364 36.2987 34.2072 36.6785C34.1153 36.8815 34.0978 37.1096 34.1577 37.3238C34.2176 37.538 34.3511 37.7251 34.5354 37.8531C34.748 38.0117 34.9811 38.1417 35.2285 38.2396C36.9839 38.9275 38.873 39.2202 40.7578 39.0965C41.0668 39.0843 41.3693 39.0059 41.6444 38.8667C41.9195 38.7275 42.1605 38.5309 42.3506 38.2905C43.2379 37.2547 43.9131 36.0591 44.3386 34.7699C44.4906 34.3235 44.6244 33.871 44.7429 33.4186C44.8979 32.8553 44.7429 32.6246 44.1532 32.5707C43.6633 32.5667 43.1755 32.6354 42.7063 32.7744C42.2234 32.9149 41.7068 32.8928 41.2381 32.7115C41.9935 32.0747 42.9232 31.6723 43.91 31.5549C44.9314 31.4441 45.6974 31.0426 46.1838 30.1197C46.6835 29.2207 47.084 28.2715 47.3784 27.2883C47.6056 26.5165 47.7162 25.7158 47.7067 24.9122C47.7539 24.5996 47.7813 24.2844 47.7887 23.9684C47.7965 23.5425 47.7537 23.1171 47.6611 22.701L47.6398 22.5512ZM7.15341 17.895C7.26284 17.6553 7.37835 17.4156 7.49386 17.1759C7.49386 17.6044 7.52122 18.0328 7.56681 18.4553C7.59113 18.692 7.63065 18.9227 7.66409 19.1564C7.60402 19.1711 7.54994 19.2035 7.50906 19.2493C6.91974 19.7745 6.37106 20.3424 5.8676 20.9482C6.281 19.9215 6.70961 18.9037 7.15341 17.895ZM22.0694 53.9849C20.4219 52.6486 18.8473 51.2283 17.2059 49.874C17.0022 49.7062 16.8016 49.5325 16.5979 49.3647C15.2409 47.8543 14.0089 46.2391 12.9137 44.5347C13.4487 45.941 14.1637 47.2741 15.0415 48.5018C14.9716 48.5227 16.68 50.728 16.6101 50.7789C16.6101 50.7789 14.5704 49.0081 14.6221 49.2568C12.4 46.3744 10.5792 43.1984 8.42098 40.0913C9.05839 42.2512 9.92441 44.3391 11.0048 46.3205C10.3968 45.5215 9.82028 44.6935 9.27515 43.8366C7.56074 41.0141 6.23541 37.9459 5.01951 34.7669C5.46635 38.5003 6.53938 42.2815 8.68544 45.5534C9.30707 46.5006 9.9979 47.4019 10.7525 48.2501C8.83548 46.6266 7.15487 44.7503 5.75817 42.674C5.42683 42.0089 5.1107 41.3377 4.81888 40.6576C3.91708 38.5829 3.20498 36.4331 2.69106 34.2336C2.58646 34.8275 2.52853 35.4286 2.51779 36.0313C1.31561 32.3796 0.944072 28.5117 1.42956 24.7025C1.36409 27.0604 1.71062 29.4118 2.45396 31.6538C2.63027 30.8718 2.82481 30.1077 3.02847 29.3587C2.4722 25.0111 3.27165 20.4568 5.46027 16.6905C4.21973 22.0388 3.89099 27.5534 4.48755 33.0081C5.06227 35.1779 6.00689 37.2357 7.28108 39.0935C6.56636 36.7258 5.9939 34.3186 5.56666 31.8845C5.63684 31.9671 5.70279 32.0531 5.76425 32.1422C5.63492 31.3944 5.67751 30.6275 5.88887 29.898C5.92535 30.0748 5.94967 30.1976 5.97703 30.3145C6.12901 30.9677 6.15941 31.6448 6.39955 32.274C7.61545 35.483 9.48185 38.3235 11.6887 40.9422C11.9288 41.2418 12.1933 41.4935 12.4365 41.7752L12.704 42.0748C16.6891 46.6081 21.1788 50.6411 25.7384 54.5991C25.7384 54.5991 25.7597 54.6291 25.7719 54.6381C24.524 54.5043 23.2869 54.2861 22.0694 53.9849ZM21.5648 45.4725C20.6742 44.4478 19.8352 43.3931 18.9932 42.3415C19.5522 43.388 20.1935 44.3899 20.9113 45.3377C21.4676 45.8381 22.039 46.3205 22.6379 46.7699C23.1273 47.3392 23.6106 47.9115 24.1395 48.4538C24.2557 48.5378 24.3445 48.6534 24.3949 48.7864C24.2398 48.7504 24.0909 48.6995 23.9541 48.6546C25.4092 49.9864 27.0463 51.1109 28.8177 51.9954C27.007 51.6665 25.2807 50.9865 23.7388 49.9949C22.1968 49.0032 20.87 47.7196 19.8352 46.2186C19.4127 45.94 18.9811 45.6793 18.5646 45.3916C17.3524 43.978 16.2228 42.4975 15.1814 40.9572C13.0329 37.7943 11.2785 34.3881 9.95605 30.8119C10.4063 34.66 11.7683 38.3498 13.932 41.5834C12.7286 40.3972 11.6882 39.0604 10.8376 37.6074C10.8133 37.5654 10.795 37.5205 10.7707 37.4785C10.0525 35.7245 9.46227 33.9222 9.00461 32.0853C8.14668 28.5941 7.79059 25.0014 7.94678 21.4126C7.93728 21.4392 7.92917 21.4662 7.92246 21.4935C7.88599 21.2538 7.88599 21.0081 7.86167 20.7654C7.38944 22.3943 7.10795 24.0712 7.0227 25.7632C6.85653 24.4808 6.74102 23.1824 6.67617 21.868C6.95887 21.1969 7.2446 20.5287 7.50298 19.8486C7.5784 19.6685 7.64038 19.4832 7.68841 19.2943C8.17888 22.1212 9.26627 24.815 10.8801 27.2014C10.029 24.2051 9.26299 21.2778 8.95902 18.3235C8.81104 16.8948 8.7907 15.456 8.89822 14.0238C9.78976 11.7986 11.2381 9.83197 13.1083 8.30699C11.8976 10.4939 10.8413 12.7604 9.94694 15.0905C11.4377 12.5882 13.095 10.186 14.9078 7.8995L15.4428 7.39613C15.4732 7.38832 15.5052 7.38895 15.5352 7.39794C15.5652 7.40693 15.5922 7.42393 15.613 7.44707C15.2787 7.62385 15.1996 7.95643 15.0446 8.22909C14.5041 9.08354 14.0674 9.99769 13.7436 10.9527C13.3014 12.6511 13.4077 14.4432 14.0476 16.0793C14.6639 17.6662 15.4701 19.175 16.449 20.5737C16.5128 20.6725 16.5736 20.7744 16.6587 20.9152C15.7234 20.7117 14.8656 20.2516 14.1843 19.5879C13.4051 18.1398 12.8478 16.5858 12.5307 14.9767C12.4568 16.8073 12.8875 18.6234 13.777 20.2321C13.894 20.8649 14.0493 21.4902 14.2421 22.1047C14.7862 23.8486 15.5644 25.4995 16.2149 27.1984C16.3094 27.3665 16.3616 27.5546 16.3669 27.7467C15.4058 26.957 14.5724 26.0274 13.8956 24.9901C13.2655 24.0096 12.7088 22.9852 12.2298 21.925C11.6416 19.9569 11.1737 17.9558 10.8285 15.9325C10.1567 21.6703 12.0444 27.7377 15.7711 32.2351C15.7604 32.6661 15.7756 33.0973 15.8167 33.5265C15.841 33.7722 15.8836 34.0119 15.92 34.2546C14.5061 32.3796 13.2126 30.4193 12.0474 28.3849C12.6905 31.8606 14.3737 35.0672 16.8806 37.5924C16.9384 37.7332 16.99 37.892 17.0569 38.0179C17.1755 38.2785 17.3092 38.5302 17.4338 38.7879C17.4338 38.704 17.4338 38.6171 17.4338 38.5332C17.522 38.8328 17.6405 39.1055 17.7378 39.3961C18.8129 41.5378 20.0945 43.5727 21.5648 45.4725ZM19.437 9.38265C18.6619 10.2306 18.4856 11.2733 18.4096 12.3489C18.3857 13.0501 18.4244 13.7519 18.5251 14.4463C17.9776 13.9498 17.5389 13.3481 17.2363 12.6782C16.9336 12.0084 16.7732 11.2845 16.7651 10.5512C16.7286 9.10699 17.7317 8.57066 18.7865 8.53471C18.9568 8.533 19.1245 8.57536 19.2729 8.65755C19.6498 8.84632 19.7197 9.08602 19.437 9.38265ZM33.4199 16.1692C32.8514 16.3699 32.7238 16.5886 32.8119 17.1729C32.8727 17.5055 32.9761 17.8321 33.0764 18.2336C30.7739 17.1816 28.3524 16.4041 25.863 15.9175C28.1945 14.5841 32.3286 14.4194 34.5324 15.8276C34.1585 15.9444 33.7785 16.0403 33.4199 16.1692ZM47.3328 24.6066C46.9946 24.8761 46.7031 25.1979 46.4695 25.5594C46.2429 25.9024 45.9789 26.2199 45.6822 26.5062C45.5332 26.6411 45.4512 26.6411 45.3782 26.4343C45.2566 26.0928 45.1198 25.7512 44.977 25.4096C44.9268 25.2537 44.8288 25.117 44.6965 25.0183C44.5642 24.9195 44.4042 24.8637 44.2383 24.8583C43.9095 24.841 43.5818 24.807 43.2565 24.7564C42.6485 24.6576 42.0923 23.7017 42.1987 22.9587L42.5391 23.0336C43.9049 23.3786 45.3293 23.4347 46.7188 23.1984C46.9475 23.1698 47.1678 23.0954 47.3662 22.9797C47.3419 23.2793 47.3358 23.6238 47.3176 23.9564C47.3145 24.1572 47.3206 24.3819 47.3328 24.6066Z" fill="white"/>
</g>
<defs>
<clipPath id="clip0_6063_892">
<rect width="238" height="56" fill="white"/>
</clipPath>
</defs>
</svg>
