<svg width="14" height="14" viewBox="0 0 14 14" fill="none" xmlns="http://www.w3.org/2000/svg">
<path d="M13.6667 10.2788V12.2788C13.6675 12.4644 13.6294 12.6482 13.555 12.8183C13.4807 12.9884 13.3716 13.1412 13.2348 13.2667C13.0979 13.3922 12.9364 13.4878 12.7605 13.5472C12.5847 13.6067 12.3983 13.6288 12.2134 13.6121C10.1619 13.3892 8.19137 12.6882 6.46004 11.5654C4.84926 10.5419 3.48359 9.17621 2.46004 7.56543C1.33336 5.82623 0.632199 3.84609 0.41337 1.78543C0.39671 1.60107 0.41862 1.41527 0.477704 1.23985C0.536787 1.06442 0.631751 0.903222 0.756547 0.76651C0.881344 0.629798 1.03324 0.520569 1.20256 0.445777C1.37189 0.370986 1.55493 0.33227 1.74004 0.332096H3.74004C4.06357 0.328912 4.37723 0.443482 4.62254 0.654451C4.86786 0.86542 5.02809 1.15839 5.07337 1.47876C5.15779 2.11881 5.31434 2.74725 5.54004 3.3521C5.62973 3.59071 5.64915 3.85004 5.59597 4.09935C5.5428 4.34866 5.41928 4.5775 5.24004 4.75876L4.39337 5.60543C5.34241 7.27446 6.72434 8.65639 8.39337 9.60543L9.24004 8.75876C9.4213 8.57952 9.65014 8.456 9.89945 8.40283C10.1488 8.34966 10.4081 8.36907 10.6467 8.45876C11.2516 8.68446 11.88 8.84101 12.52 8.92543C12.8439 8.97112 13.1396 9.13423 13.3511 9.38376C13.5625 9.63329 13.6748 9.95181 13.6667 10.2788Z" fill="#6388A5"/>
</svg>
