<svg width="13" height="14" viewBox="0 0 13 14" fill="none" xmlns="http://www.w3.org/2000/svg">
<path d="M11.6667 13V11.6667C11.6667 10.9594 11.3857 10.2811 10.8856 9.78105C10.3855 9.28095 9.70724 9 9 9H3.66667C2.95942 9 2.28115 9.28095 1.78105 9.78105C1.28095 10.2811 1 10.9594 1 11.6667V13" fill="#6388A5"/>
<path d="M6.33333 6.33333C7.80609 6.33333 9 5.13943 9 3.66667C9 2.19391 7.80609 1 6.33333 1C4.86057 1 3.66667 2.19391 3.66667 3.66667C3.66667 5.13943 4.86057 6.33333 6.33333 6.33333Z" fill="#6388A5"/>
<path d="M11.6667 13V11.6667C11.6667 10.9594 11.3857 10.2811 10.8856 9.78105C10.3855 9.28095 9.70724 9 9 9H3.66667C2.95942 9 2.28115 9.28095 1.78105 9.78105C1.28095 10.2811 1 10.9594 1 11.6667V13M9 3.66667C9 5.13943 7.80609 6.33333 6.33333 6.33333C4.86057 6.33333 3.66667 5.13943 3.66667 3.66667C3.66667 2.19391 4.86057 1 6.33333 1C7.80609 1 9 2.19391 9 3.66667Z" stroke="#6388A5" stroke-width="2" stroke-linecap="round" stroke-linejoin="round"/>
</svg>
