<svg width="68" height="68" viewBox="0 0 68 68" fill="none" xmlns="http://www.w3.org/2000/svg">
<rect width="68" height="68" rx="10" fill="#3E6B8E"/>
<g clip-path="url(#clip0_9_55206)">
<path d="M48.1445 18.6875H31.962C30.615 15.8528 27.7345 14 24.5508 14C20.028 14 16.3477 17.6804 16.3477 22.2031C16.3477 26.7259 20.028 30.4062 24.5508 30.4062C27.7345 30.4062 30.615 28.5534 31.962 25.7188C38.2348 25.7188 42.5853 25.7188 48.1445 25.7188C50.0831 25.7188 51.6602 24.1417 51.6602 22.2031C51.6602 20.2645 50.0831 18.6875 48.1445 18.6875ZM24.5508 25.7188C22.6122 25.7188 21.0352 24.1417 21.0352 22.2031C21.0352 20.2645 22.6122 18.6875 24.5508 18.6875C26.4894 18.6875 28.0664 20.2645 28.0664 22.2031C28.0664 24.1417 26.4894 25.7188 24.5508 25.7188Z" fill="white"/>
<path d="M17.5195 32.75H15.1758C14.528 32.75 14.0039 33.2741 14.0039 33.9219V52.8281C14.0039 53.4759 14.528 54 15.1758 54H17.5195C19.4581 54 21.0352 52.423 21.0352 50.4844V36.2656C21.0352 34.327 19.4581 32.75 17.5195 32.75Z" fill="white"/>
<path d="M37.5977 28.0625V31.5781C37.5977 32.2259 38.1218 32.75 38.7695 32.75H42.2852V31.5781C42.2852 30.9304 42.8093 30.4062 43.457 30.4062C44.1048 30.4062 44.6289 30.9304 44.6289 31.5781V32.75H48.1445C48.7923 32.75 49.3164 32.2259 49.3164 31.5781V28.0625H37.5977Z" fill="white"/>
<path d="M53.043 35.5382C52.082 34.8351 50.7461 34.9757 49.9493 35.8429L43.6212 43.7179C43.1759 44.1866 42.3321 44.4679 41.8868 44.4679H31.582C30.9257 44.4679 30.4102 43.9523 30.4102 43.296C30.4102 42.6397 30.9257 42.1241 31.582 42.1241C36.832 42.1241 35.2773 42.1241 41.1133 42.1241C42.4023 42.1241 43.457 41.0694 43.457 39.7804C43.457 38.4913 42.4023 37.4366 41.1133 37.4366C35.6097 37.4366 40.7812 37.4366 34.8945 37.4366C34.3105 37.4366 34.0192 37.0662 33.5586 36.6631C32.8555 36.0304 31.9805 35.5616 31.1602 35.2334C28.6204 34.1963 25.6857 34.5101 23.3789 36.1144C23.3789 40.3815 23.3789 46.8179 23.3789 51.6553H41.1133C43.3164 51.6553 45.4259 50.6006 46.7384 48.8428L53.5352 38.8428C54.3087 37.8115 54.0977 36.3116 53.043 35.5382Z" fill="white"/>
</g>
<defs>
<clipPath id="clip0_9_55206">
<rect width="40" height="40" fill="white" transform="translate(14 14)"/>
</clipPath>
</defs>
</svg>
