<svg width="68" height="68" viewBox="0 0 68 68" fill="none" xmlns="http://www.w3.org/2000/svg">
<rect width="68" height="68" rx="10" fill="#3E6B8E"/>
<g clip-path="url(#clip0_9_55228)">
<path d="M35.4464 48.7564C34.7744 47.9724 34.4478 46.9733 34.5271 45.9434C34.6063 44.9135 35.0818 43.9761 35.866 43.3039L38.7914 40.7965C37.7868 40.5119 36.7273 40.3594 35.6328 40.3594H35.2031V41.2188C35.2031 44.2988 32.6973 46.8047 29.6172 46.8047C26.5371 46.8047 24.0312 44.2988 24.0312 41.2188V40.3594H23.6016C17.2045 40.3594 12 45.5638 12 51.9609V54.7109C12 55.4228 12.5772 56 13.2891 56H18.875V50.2422C18.875 49.5303 19.4522 48.9531 20.1641 48.9531C20.876 48.9531 21.4531 49.5303 21.4531 50.2422V56H36.6641V49.7047C36.204 49.4765 35.7889 49.1561 35.4464 48.7564Z" fill="white"/>
<path d="M55.5498 45.2612L47.3858 38.2634C46.9031 37.8497 46.1907 37.8497 45.708 38.2634L37.544 45.2612C37.0034 45.7246 36.9408 46.5382 37.4041 47.0788C37.8675 47.6195 38.6813 47.682 39.2217 47.2186L39.2422 47.2011V56H45.2578V51.3098C45.2578 50.6157 45.7912 50.0185 46.4845 49.9859C47.2248 49.951 47.8359 50.5409 47.8359 51.2734V56H52.5625C53.2744 56 53.8515 55.4228 53.8515 54.7109V47.2011L53.872 47.2186C54.1151 47.427 54.4134 47.529 54.7103 47.5289C55.0736 47.5289 55.4347 47.3762 55.6897 47.0788C56.1529 46.5383 56.0904 45.7246 55.5498 45.2612ZM47.4062 47.4062H45.6875C44.9756 47.4062 44.3984 46.8291 44.3984 46.1171C44.3984 45.4052 44.9756 44.8281 45.6875 44.8281H47.4062C48.1181 44.8281 48.6953 45.4052 48.6953 46.1171C48.6953 46.8291 48.1181 47.4062 47.4062 47.4062Z" fill="white"/>
<path d="M27.3113 19.8704C27.7481 18.997 28.6408 18.4453 29.6173 18.4453C30.5938 18.4453 31.4865 18.997 31.9233 19.8704C32.5439 21.1117 33.7915 21.8828 35.1793 21.8828H42.1527C41.604 19.5764 40.4252 17.4613 38.7036 15.7489C36.2727 13.3314 33.0459 12 29.6173 12C26.1887 12 22.9619 13.3314 20.5311 15.7489C18.8094 17.4613 17.6307 19.5764 17.082 21.8828H24.0553C25.4431 21.8828 26.6907 21.1117 27.3113 19.8704Z" fill="white"/>
<path d="M38.6406 29.1875V24.4609H35.1791C32.8238 24.4609 30.6705 23.1302 29.6172 21.0234C28.5639 23.1302 26.4106 24.4609 24.0552 24.4609H20.5938V29.1875C20.5938 34.171 24.6337 38.2109 29.6172 38.2109C34.6007 38.2109 38.6406 34.171 38.6406 29.1875ZM32.6771 33.5052C31.8593 34.323 30.7726 34.7734 29.6172 34.7734C28.4618 34.7734 27.3751 34.323 26.5573 33.5052C26.0539 33.0018 26.0539 32.1856 26.5573 31.6822C27.0606 31.1788 27.8769 31.1788 28.3803 31.6822C28.7112 32.013 29.1505 32.1953 29.6173 32.1953C30.0841 32.1953 30.5233 32.013 30.8543 31.6822C31.3576 31.1788 32.1738 31.1788 32.6772 31.6822C33.1806 32.1856 33.1806 33.0018 32.6771 33.5052Z" fill="white"/>
<path d="M41.2188 29.6172C42.6426 29.6172 43.7969 28.4629 43.7969 27.0391C43.7969 25.6152 42.6426 24.4609 41.2188 24.4609V29.6172Z" fill="white"/>
<path d="M18.0156 29.6172V24.4609C16.5918 24.4609 15.4375 25.6152 15.4375 27.0391C15.4375 28.463 16.5918 29.6172 18.0156 29.6172Z" fill="white"/>
<path d="M26.6094 40.3926V41.2184C26.6094 42.8769 27.9587 44.2262 29.6172 44.2262C31.2757 44.2262 32.625 42.8769 32.625 41.2184V40.3926C31.6653 40.6504 30.6572 40.7887 29.6172 40.7887C28.5772 40.7887 27.569 40.6504 26.6094 40.3926Z" fill="white"/>
</g>
<defs>
<clipPath id="clip0_9_55228">
<rect width="44" height="44" fill="white" transform="translate(12 12)"/>
</clipPath>
</defs>
</svg>
