<svg width="78" height="78" viewBox="0 0 78 78" fill="none" xmlns="http://www.w3.org/2000/svg">
<g filter="url(#filter0_di_6118_6427)">
<rect x="1" y="1" width="68" height="68" rx="10" fill="#3E6B8E"/>
</g>
<g clip-path="url(#clip0_6118_6427)">
<path d="M36.4464 49.7564C35.7744 48.9724 35.4478 47.9733 35.5271 46.9434C35.6063 45.9135 36.0818 44.9761 36.866 44.3039L39.7914 41.7965C38.7868 41.5119 37.7273 41.3594 36.6328 41.3594H36.2031V42.2188C36.2031 45.2988 33.6973 47.8047 30.6172 47.8047C27.5371 47.8047 25.0312 45.2988 25.0312 42.2188V41.3594H24.6016C18.2045 41.3594 13 46.5638 13 52.9609V55.7109C13 56.4228 13.5772 57 14.2891 57H19.875V51.2422C19.875 50.5303 20.4522 49.9531 21.1641 49.9531C21.876 49.9531 22.4531 50.5303 22.4531 51.2422V57H37.6641V50.7047C37.204 50.4765 36.7889 50.1561 36.4464 49.7564Z" fill="white"/>
<path d="M56.5498 46.2612L48.3858 39.2634C47.9031 38.8497 47.1907 38.8497 46.708 39.2634L38.544 46.2612C38.0034 46.7246 37.9408 47.5382 38.4041 48.0788C38.8675 48.6195 39.6813 48.682 40.2217 48.2186L40.2422 48.2011V57H46.2578V52.3098C46.2578 51.6157 46.7912 51.0185 47.4845 50.9859C48.2248 50.951 48.8359 51.5409 48.8359 52.2734V57H53.5625C54.2744 57 54.8515 56.4228 54.8515 55.7109V48.2011L54.872 48.2186C55.1151 48.427 55.4134 48.529 55.7103 48.5289C56.0736 48.5289 56.4347 48.3762 56.6897 48.0788C57.1529 47.5383 57.0904 46.7246 56.5498 46.2612ZM48.4062 48.4062H46.6875C45.9756 48.4062 45.3984 47.8291 45.3984 47.1171C45.3984 46.4052 45.9756 45.8281 46.6875 45.8281H48.4062C49.1181 45.8281 49.6953 46.4052 49.6953 47.1171C49.6953 47.8291 49.1181 48.4062 48.4062 48.4062Z" fill="white"/>
<path d="M28.3113 20.8704C28.7481 19.997 29.6408 19.4453 30.6173 19.4453C31.5938 19.4453 32.4865 19.997 32.9233 20.8704C33.5439 22.1117 34.7915 22.8828 36.1793 22.8828H43.1527C42.604 20.5764 41.4252 18.4613 39.7036 16.7489C37.2727 14.3314 34.0459 13 30.6173 13C27.1887 13 23.9619 14.3314 21.5311 16.7489C19.8094 18.4613 18.6307 20.5764 18.082 22.8828H25.0553C26.4431 22.8828 27.6907 22.1117 28.3113 20.8704Z" fill="white"/>
<path d="M39.6406 30.1875V25.4609H36.1791C33.8238 25.4609 31.6705 24.1302 30.6172 22.0234C29.5639 24.1302 27.4106 25.4609 25.0552 25.4609H21.5938V30.1875C21.5938 35.171 25.6337 39.2109 30.6172 39.2109C35.6007 39.2109 39.6406 35.171 39.6406 30.1875ZM33.6771 34.5052C32.8593 35.323 31.7726 35.7734 30.6172 35.7734C29.4618 35.7734 28.3751 35.323 27.5573 34.5052C27.0539 34.0018 27.0539 33.1856 27.5573 32.6822C28.0606 32.1788 28.8769 32.1788 29.3803 32.6822C29.7112 33.013 30.1505 33.1953 30.6173 33.1953C31.0841 33.1953 31.5233 33.013 31.8543 32.6822C32.3576 32.1788 33.1738 32.1788 33.6772 32.6822C34.1806 33.1856 34.1806 34.0018 33.6771 34.5052Z" fill="white"/>
<path d="M42.2188 30.6172C43.6426 30.6172 44.7969 29.4629 44.7969 28.0391C44.7969 26.6152 43.6426 25.4609 42.2188 25.4609V30.6172Z" fill="white"/>
<path d="M19.0156 30.6172V25.4609C17.5918 25.4609 16.4375 26.6152 16.4375 28.0391C16.4375 29.463 17.5918 30.6172 19.0156 30.6172Z" fill="white"/>
<path d="M27.6094 41.3945V42.2204C27.6094 43.8789 28.9587 45.2282 30.6172 45.2282C32.2757 45.2282 33.625 43.8789 33.625 42.2204V41.3945C32.6653 41.6523 31.6572 41.7907 30.6172 41.7907C29.5772 41.7907 28.569 41.6523 27.6094 41.3945Z" fill="white"/>
</g>
<defs>
<filter id="filter0_di_6118_6427" x="0" y="0" width="78" height="78" filterUnits="userSpaceOnUse" color-interpolation-filters="sRGB">
<feFlood flood-opacity="0" result="BackgroundImageFix"/>
<feColorMatrix in="SourceAlpha" type="matrix" values="0 0 0 0 0 0 0 0 0 0 0 0 0 0 0 0 0 0 127 0" result="hardAlpha"/>
<feOffset dx="4" dy="4"/>
<feGaussianBlur stdDeviation="2.5"/>
<feComposite in2="hardAlpha" operator="out"/>
<feColorMatrix type="matrix" values="0 0 0 0 0 0 0 0 0 0 0 0 0 0 0 0 0 0 0.1 0"/>
<feBlend mode="normal" in2="BackgroundImageFix" result="effect1_dropShadow_6118_6427"/>
<feBlend mode="normal" in="SourceGraphic" in2="effect1_dropShadow_6118_6427" result="shape"/>
<feColorMatrix in="SourceAlpha" type="matrix" values="0 0 0 0 0 0 0 0 0 0 0 0 0 0 0 0 0 0 127 0" result="hardAlpha"/>
<feMorphology radius="1" operator="erode" in="SourceAlpha" result="effect2_innerShadow_6118_6427"/>
<feOffset dx="2" dy="4"/>
<feGaussianBlur stdDeviation="5"/>
<feComposite in2="hardAlpha" operator="arithmetic" k2="-1" k3="1"/>
<feColorMatrix type="matrix" values="0 0 0 0 0.34902 0 0 0 0 0.513726 0 0 0 0 0.639216 0 0 0 1 0"/>
<feBlend mode="normal" in2="shape" result="effect2_innerShadow_6118_6427"/>
</filter>
<clipPath id="clip0_6118_6427">
<rect width="44" height="44" fill="white" transform="translate(13 13)"/>
</clipPath>
</defs>
</svg>
